<svg xmlns="http://www.w3.org/2000/svg" viewBox="0 0 200 200" width="500" height="500">
<rect width="200" height="200" fill="#f0f0f0"/>
<polygon points="116.7,116.6 150.0,83.0 185.1,117.5 185.1,117.5 183.0,120.1 180.7,122.7 178.3,125.3 175.8,127.9 173.2,130.6 170.5,133.3 167.7,136.0 164.9,138.9 158.9,144.7 155.7,147.7 152.6,150.9 149.3,154.1 146.0,157.4 142.7,160.9 139.3,164.5" fill="#E53E3E" stroke="#222" stroke-width="0.5" opacity="0.85"/>
<text x="161.8684210526316" y="134.18947368421053" text-anchor="middle" font-size="6" fill="#fff" stroke="#000" stroke-width="0.2">0</text>
<polygon points="64.5,162.6 65.9,164.0 67.3,165.4 68.9,167.0 70.4,168.6 73.5,171.8 75.0,173.3 76.3,174.8 95.4,192.3 96.8,193.6 97.5,194.3 98.3,195.0 98.8,127.0 64.5,93.8" fill="#ED8936" stroke="#222" stroke-width="0.5" opacity="0.85"/>
<text x="79.50714285714285" y="167.39285714285714" text-anchor="middle" font-size="6" fill="#fff" stroke="#000" stroke-width="0.2">1</text>
<polygon points="102.7,33.8 102.6,33.9 136.3,67.1 103.0,100.7 68.8,67.4 102.6,33.7" fill="#ECC94B" stroke="#222" stroke-width="0.5" opacity="0.85"/>
<text x="102.66666666666667" y="56.1" text-anchor="middle" font-size="6" fill="#fff" stroke="#000" stroke-width="0.2">2</text>
<polygon points="179.1,97.6 180.6,95.6 182.1,93.7 183.5,91.7 184.8,89.7 186.0,87.7 187.1,85.6 188.1,83.6 189.1,81.5 189.9,79.4 190.6,77.2 191.2,75.1 191.8,72.9 192.2,70.6 192.5,68.3 192.6,66.0 192.7,63.6 192.6,61.1 192.5,58.7 192.2,56.2 191.8,53.8 191.2,51.3 190.6,48.9 189.9,46.5 189.0,44.2 188.1,41.9 187.1,39.6 186.0,37.5 184.7,35.4 183.4,33.3 182.0,31.4 180.6,29.6 179.0,27.9 144.1,63.1 179.1,97.6" fill="#38A169" stroke="#222" stroke-width="0.5" opacity="0.85"/>
<text x="186.22285714285715" y="63.93714285714286" text-anchor="middle" font-size="6" fill="#fff" stroke="#000" stroke-width="0.2">3</text>
<polygon points="100.9,19.6 98.6,17.7 96.3,16.0 94.0,14.4 91.6,12.9 89.3,11.6 86.9,10.4 84.5,9.3 82.0,8.4 79.6,7.5 77.2,6.8 74.8,6.2 72.4,5.8 70.0,5.4 67.6,5.2 65.2,5.0 62.9,5.0 60.5,5.1 58.3,5.3 56.0,5.6 53.8,6.0 51.6,6.5 49.5,7.1 47.4,7.7 45.4,8.5 43.5,9.4 41.6,10.4 39.7,11.4 38.0,12.6 36.3,13.8 34.7,15.1 33.2,16.5 31.8,18.0 67.1,53.4 67.1,53.3" fill="#4FD1C5" stroke="#222" stroke-width="0.5" opacity="0.85"/>
<text x="64.2657142857143" y="12.368571428571428" text-anchor="middle" font-size="6" fill="#fff" stroke="#000" stroke-width="0.2">4</text>
<polygon points="169.2,17.6 167.6,16.5 165.8,15.4 164.0,14.3 162.2,13.3 160.2,12.3 158.2,11.4 156.1,10.6 153.9,9.8 151.7,9.0 149.4,8.4 147.1,7.8 144.7,7.3 142.4,6.9 140.0,6.6 137.6,6.4 135.1,6.3 132.7,6.3 130.3,6.4 127.9,6.6 125.5,7.0 123.1,7.5 120.8,8.1 118.4,8.9 116.2,9.8 114.0,10.8 111.8,12.1 109.7,13.4 107.7,15.0 105.7,16.7 103.8,18.6 102.0,20.7 135.7,53.8 135.6,53.9 135.7,54.0 170.6,18.8" fill="#3182CE" stroke="#222" stroke-width="0.5" opacity="0.85"/>
<text x="137.0111111111111" y="14.674999999999999" text-anchor="middle" font-size="6" fill="#fff" stroke="#000" stroke-width="0.2">5</text>
<polygon points="52.5,98.2 52.4,98.2 18.2,132.3 20.0,134.4 21.8,136.5 25.6,140.6 29.6,144.6 31.7,146.7 33.8,148.7 35.9,150.8 42.7,157.3 45.1,159.6 47.5,161.9 50.0,164.3 52.5,166.8" fill="#805AD5" stroke="#222" stroke-width="0.5" opacity="0.85"/>
<text x="37.28666666666666" y="142.72666666666666" text-anchor="middle" font-size="6" fill="#fff" stroke="#000" stroke-width="0.2">6</text>
<polygon points="21.7,110.8 55.8,76.7 7.3,76.7 7.4,79.1 7.6,81.4 7.9,83.7 8.3,86.0 8.9,88.2 9.5,90.4 10.3,92.5 11.2,94.6 12.2,96.7 13.3,98.8 14.5,100.9 15.7,102.9 17.1,104.9 18.6,106.9 20.1,108.9 21.7,110.9" fill="#ED64A6" stroke="#222" stroke-width="0.5" opacity="0.85"/>
<text x="15.215789473684211" y="94.26315789473684" text-anchor="middle" font-size="6" fill="#fff" stroke="#000" stroke-width="0.2">7</text>
<polygon points="9.4,63.9 9.3,63.9 9.4,61.3 9.6,58.7 9.8,56.1 10.2,53.6 10.8,51.2 11.4,48.8 12.1,46.4 12.9,44.2 13.8,42.0 14.8,39.8 15.9,37.8 17.1,35.8 18.4,33.8 19.7,32.0 21.2,30.3 22.7,28.6" fill="#FC8181" stroke="#222" stroke-width="0.5" opacity="0.85"/>
<text x="13.805555555555555" y="46.01111111111111" text-anchor="middle" font-size="6" fill="#fff" stroke="#000" stroke-width="0.2">8</text>
</svg>