<svg xmlns="http://www.w3.org/2000/svg" viewBox="0 0 200 200" width="500" height="500">
<rect width="200" height="200" fill="#f0f0f0"/>
<polygon points="117.4,98.7 117.4,64.0 117.4,63.8 117.5,63.6 117.6,63.4 117.8,63.2 118.0,63.0 118.2,62.9 118.4,62.8 118.6,62.8 153.3,62.8 153.5,62.8 153.8,62.9 154.0,63.0 154.2,63.2 154.3,63.4 154.4,63.6 154.5,63.8 154.5,64.0 154.5,98.7 154.5,99.0 154.4,99.2 154.3,99.4 154.2,99.6 154.0,99.7 153.8,99.9 153.5,99.9 153.3,99.9 118.6,99.9 118.4,99.9 118.2,99.9 118.0,99.7 117.8,99.6 117.6,99.4 117.5,99.2 117.4,99.0" fill="#E53E3E" stroke="#222" stroke-width="0.5" opacity="0.85"/>
<text x="135.96666666666667" y="81.37777777777778" text-anchor="middle" font-size="6" fill="#fff" stroke="#000" stroke-width="0.2">0</text>
<polygon points="157.9,139.8 157.9,105.1 157.9,104.9 158.0,104.6 158.1,104.4 158.2,104.2 158.4,104.1 158.6,104.0 158.9,103.9 159.1,103.9 193.8,103.9 194.0,103.9 194.2,104.0 194.4,104.1 194.6,104.2 194.8,104.4 194.9,104.6 195.0,104.9 195.0,105.1 195.0,139.8 195.0,140.0 194.9,140.3 194.8,140.5 194.6,140.7 194.4,140.8 194.2,140.9 194.0,141.0 193.8,141.0 159.1,141.0 158.9,141.0 158.6,140.9 158.4,140.8 158.2,140.7 158.1,140.5 158.0,140.3 157.9,140.0" fill="#ED8936" stroke="#222" stroke-width="0.5" opacity="0.85"/>
<text x="176.43333333333334" y="122.44999999999999" text-anchor="middle" font-size="6" fill="#fff" stroke="#000" stroke-width="0.2">1</text>
<polygon points="186.0,132.1 185.5,132.6 184.9,133.1 184.3,133.6 183.7,134.0 183.1,134.4 181.8,135.1 181.2,135.4 180.5,135.7 179.8,135.9 179.1,136.1 178.4,136.2 177.0,136.4 176.2,136.4 175.5,136.4 174.8,136.4 174.0,136.3 173.3,136.2 172.6,136.0 171.9,135.8 171.2,135.5 170.5,135.3 169.8,134.9 169.1,134.5 168.4,134.1 167.8,133.7 167.1,133.1 166.4,132.4 165.7,131.7 165.2,131.1 163.9,129.0 163.2,127.5 162.8,125.8 162.6,125.0 162.5,124.0 162.5,122.8 162.5,121.6 162.5,121.1 162.6,120.6 162.8,119.5 163.2,118.5 163.5,117.5 164.0,116.5 164.5,115.6 165.1,114.7 165.8,113.9 166.6,113.1 167.4,112.4 168.2,111.8 169.0,111.2 169.9,110.7 171.6,110.0 172.5,109.7 175.2,109.3 176.1,109.2 176.4,109.2 176.5,109.3 177.2,109.3 177.9,109.4 178.7,109.5 179.4,109.7 180.2,109.9 181.0,110.2 181.7,110.5 182.4,110.9 183.9,111.8 185.4,113.0 186.1,113.7 186.7,114.4 187.3,115.2 187.8,116.0 188.5,117.6 188.8,118.3 189.1,119.1 189.3,119.8 189.4,120.6 189.5,121.4 189.6,122.1 189.6,122.9 189.6,123.7 189.4,125.2 189.2,126.0 189.0,126.7 188.8,127.5 188.5,128.2 188.2,128.9 187.8,129.6 187.4,130.3 187.0,130.9 186.5,131.5" fill="#ECC94B" stroke="#222" stroke-width="0.5" opacity="0.85"/>
<text x="176.76777777777778" y="123.59666666666668" text-anchor="middle" font-size="6" fill="#fff" stroke="#000" stroke-width="0.2">2</text>
<polygon points="49.0,120.2 49.0,120.3 49.0,139.0 49.0,139.1 49.0,139.2 48.9,139.3 48.8,139.4 48.7,139.4 48.6,139.4 23.4,139.4 23.3,139.4 23.2,139.4 23.2,139.3 23.1,139.2 23.0,139.1 23.0,139.0 23.0,138.9 23.0,138.8 23.1,138.7 31.3,126.5 31.4,126.5 31.5,126.4 31.5,126.4 48.4,120.0 48.5,119.9 48.6,119.9 48.7,120.0 48.8,120.0 48.9,120.1 49.0,120.2" fill="#38A169" stroke="#222" stroke-width="0.5" opacity="0.85"/>
<text x="37.93" y="131.74666666666667" text-anchor="middle" font-size="6" fill="#fff" stroke="#000" stroke-width="0.2">3</text>
<polygon points="82.0,89.6 82.0,89.7 82.0,108.3 82.0,108.5 81.9,108.6 81.9,108.6 81.8,108.7 81.7,108.8 81.6,108.8 56.4,108.8 56.3,108.8 56.2,108.7 56.1,108.7 56.1,108.6 56.0,108.5 56.0,108.4 56.0,108.3 56.0,108.2 56.1,108.1 64.3,95.9 64.4,95.8 64.5,95.8 64.5,95.7 81.4,89.3 81.5,89.3 81.6,89.3 81.7,89.3 81.8,89.4 81.9,89.4 82.0,89.5" fill="#4FD1C5" stroke="#222" stroke-width="0.5" opacity="0.85"/>
<text x="70.92333333333333" y="101.11333333333333" text-anchor="middle" font-size="6" fill="#fff" stroke="#000" stroke-width="0.2">4</text>
<polygon points="72.6,58.8 72.7,58.8 72.8,58.9 86.1,66.2 86.1,66.3 86.2,66.3 86.2,66.4 86.3,66.5 86.3,66.6 86.3,79.9 86.3,80.0 86.2,80.1 86.1,80.2 86.1,80.3 86.0,80.3 85.8,80.4 75.6,80.4 75.5,80.3 75.4,80.3 75.3,80.3 75.3,80.2 75.2,80.1 68.3,66.5 68.3,66.4 68.3,66.3 68.3,66.2 68.3,66.1 72.3,59.0 72.3,58.9 72.4,58.9 72.5,58.8" fill="#3182CE" stroke="#222" stroke-width="0.5" opacity="0.85"/>
<text x="78.10967741935484" y="70.47419354838709" text-anchor="middle" font-size="6" fill="#fff" stroke="#000" stroke-width="0.2">5</text>
<polygon points="70.4,118.2 70.5,118.2 70.6,118.3 83.8,125.6 83.9,125.6 83.9,125.7 84.0,125.8 84.0,125.9 84.0,126.0 84.0,139.3 84.0,139.4 84.0,139.5 83.9,139.6 83.8,139.7 83.7,139.7 83.6,139.7 73.3,139.7 73.3,139.7 73.2,139.7 73.1,139.6 73.0,139.6 73.0,139.5 66.1,125.9 66.0,125.8 66.0,125.7 66.0,125.6 66.1,125.5 70.0,118.4 70.1,118.3 70.2,118.3 70.3,118.2" fill="#805AD5" stroke="#222" stroke-width="0.5" opacity="0.85"/>
<text x="75.86451612903227" y="129.86129032258063" text-anchor="middle" font-size="6" fill="#fff" stroke="#000" stroke-width="0.2">6</text>
<polygon points="25.9,60.4 16.2,60.4 16.1,60.4 16.0,60.4 15.9,60.5 15.9,60.6 15.8,60.7 15.8,60.7 12.3,84.8 12.3,84.9 12.4,85.0 12.4,85.1 12.5,85.2 12.6,85.2 12.7,85.2 12.8,85.2 12.9,85.2 26.1,80.2 26.1,80.2 26.2,80.1 26.3,80.0 26.3,79.9 26.3,79.8 26.3,60.8 26.3,60.7 26.3,60.6 26.2,60.5 26.1,60.4 26.0,60.4" fill="#ED64A6" stroke="#222" stroke-width="0.5" opacity="0.85"/>
<text x="19.482758620689655" y="72.1896551724138" text-anchor="middle" font-size="6" fill="#fff" stroke="#000" stroke-width="0.2">7</text>
<polygon points="50.8,60.1 41.2,60.1 41.1,60.1 41.0,60.2 40.9,60.2 40.8,60.3 40.8,60.4 40.7,60.5 37.3,84.5 37.2,84.6 37.3,84.7 37.3,84.8 37.4,84.9 37.5,85.0 37.6,85.0 37.7,85.0 37.8,85.0 51.0,80.0 51.1,79.9 51.2,79.8 51.2,79.8 51.2,79.7 51.3,79.6 51.3,60.5 51.2,60.4 51.2,60.3 51.1,60.2 51.0,60.2 50.9,60.1" fill="#FC8181" stroke="#222" stroke-width="0.5" opacity="0.85"/>
<text x="44.41724137931034" y="71.92758620689655" text-anchor="middle" font-size="6" fill="#fff" stroke="#000" stroke-width="0.2">8</text>
<polygon points="48.2,107.8 48.3,107.8 48.4,107.7 48.5,107.7 48.5,107.5 48.5,107.4 48.5,93.8 48.5,93.7 48.5,93.6 48.4,93.5 48.3,93.4 48.3,93.4 48.2,93.3 48.0,93.3 48.0,93.4 30.5,100.0 30.4,100.0 30.3,100.1 30.3,100.2 30.2,100.3 30.2,100.4 30.3,100.5 32.9,107.6 33.0,107.7 33.1,107.8 33.1,107.8 33.2,107.9 33.3,107.9 48.1,107.9" fill="#D69E2E" stroke="#222" stroke-width="0.5" opacity="0.85"/>
<text x="40.827586206896555" y="101.49655172413793" text-anchor="middle" font-size="6" fill="#fff" stroke="#000" stroke-width="0.2">9</text>
<polygon points="23.0,101.1 23.1,101.1 23.2,101.0 23.2,100.9 23.3,100.8 23.3,100.7 23.3,87.0 23.3,86.9 23.2,86.8 23.2,86.7 23.1,86.7 23.0,86.6 22.9,86.6 22.8,86.6 22.7,86.6 5.3,93.3 5.2,93.3 5.1,93.4 5.0,93.5 5.0,93.6 5.0,93.7 5.0,93.8 7.7,100.8 7.8,100.9 7.8,101.0 7.9,101.1 8.0,101.1 8.1,101.1 22.9,101.1" fill="#68D391" stroke="#222" stroke-width="0.5" opacity="0.85"/>
<text x="15.6" y="94.75172413793103" text-anchor="middle" font-size="6" fill="#fff" stroke="#000" stroke-width="0.2">10</text>
<polygon points="5.1,126.9 5.0,127.0 5.0,127.0 5.0,140.8 5.0,140.9 5.1,141.0 5.2,141.1 5.2,141.1 5.3,141.2 5.5,141.2 18.3,141.2 18.4,141.2 18.5,141.1 18.6,141.1 18.6,141.0 18.7,140.9 18.7,140.8 18.7,140.7 18.6,140.6 9.8,124.6 9.7,124.5 9.7,124.5 9.5,124.4 9.4,124.4 9.3,124.4 9.2,124.5 5.3,126.7 5.2,126.7 5.1,126.8" fill="#0BC5EA" stroke="#222" stroke-width="0.5" opacity="0.85"/>
<text x="10.36896551724138" y="134.0793103448276" text-anchor="middle" font-size="6" fill="#fff" stroke="#000" stroke-width="0.2">11</text>
<polygon points="5.1,107.5 5.1,107.5 5.1,107.6 5.1,121.3 5.1,121.5 5.1,121.6 5.2,121.6 5.3,121.7 5.4,121.8 5.5,121.8 18.3,121.8 18.4,121.8 18.5,121.7 18.6,121.7 18.7,121.6 18.7,121.5 18.7,121.4 18.7,121.2 18.7,121.1 9.8,105.2 9.8,105.1 9.7,105.1 9.6,105.0 9.5,105.0 9.4,105.0 9.3,105.1 5.3,107.3 5.2,107.3 5.2,107.4" fill="#9B2C2C" stroke="#222" stroke-width="0.5" opacity="0.85"/>
<text x="10.417241379310346" y="114.66206896551724" text-anchor="middle" font-size="6" fill="#fff" stroke="#000" stroke-width="0.2">12</text>
<polygon points="134.0,76.4 133.9,76.2 133.8,76.1 133.8,76.1 133.9,76.0 134.0,75.9 134.4,75.6 134.9,75.4 134.8,75.1 134.8,74.9 134.8,74.8 134.9,74.7 134.9,74.6 135.1,74.5 135.2,74.5 135.4,74.4 135.5,74.5 135.6,74.5 135.8,74.6 135.8,74.7 135.9,74.8 135.9,75.0 135.9,75.3 135.9,75.4 135.9,75.4 136.2,75.6 136.7,75.9 136.8,76.0 136.8,76.1 136.8,76.2 136.7,76.3 136.7,76.4 136.7,77.2 136.8,78.0 136.8,78.1 137.0,78.3 137.0,78.4 137.0,78.5 136.9,78.6 136.8,78.7 137.1,81.1 137.4,83.5 136.9,83.4 136.6,83.4 135.6,83.3 134.9,83.3 134.4,83.3 134.0,83.4 133.5,83.5 133.3,83.5 133.3,83.4 133.8,79.2 133.8,78.7 133.7,78.6 133.7,78.5 133.6,78.4 133.7,78.3 133.8,78.1 133.9,78.0 133.9,77.5 134.0,76.6" fill="#A0AEC0" stroke="#222" stroke-width="0.5" opacity="0.85"/>
<text x="135.2688524590164" y="77.61803278688524" text-anchor="middle" font-size="6" fill="#fff" stroke="#000" stroke-width="0.2">13</text>
</svg>