<svg xmlns="http://www.w3.org/2000/svg" viewBox="0 0 200 200" width="500" height="500">
<rect width="200" height="200" fill="#f0f0f0"/>
<polygon points="6.1,120.4 69.4,120.4 70.5,119.3 70.5,104.4 5.0,104.4 5.0,119.3" fill="#E53E3E" stroke="#222" stroke-width="0.5" opacity="0.85"/>
<text x="37.75" y="114.7" text-anchor="middle" font-size="6" fill="#fff" stroke="#000" stroke-width="0.2">0</text>
<polygon points="29.0,142.5 92.4,142.5 93.5,141.4 93.5,126.5 27.9,126.5 27.9,141.4" fill="#ED8936" stroke="#222" stroke-width="0.5" opacity="0.85"/>
<text x="60.699999999999996" y="136.79999999999998" text-anchor="middle" font-size="6" fill="#fff" stroke="#000" stroke-width="0.2">1</text>
<polygon points="29.6,96.5 92.9,96.5 94.0,95.4 94.0,80.6 28.5,80.6 28.5,95.4" fill="#ECC94B" stroke="#222" stroke-width="0.5" opacity="0.85"/>
<text x="61.25" y="90.83333333333333" text-anchor="middle" font-size="6" fill="#fff" stroke="#000" stroke-width="0.2">2</text>
<polygon points="6.3,73.5 69.7,73.5 70.8,72.4 70.8,57.5 5.2,57.5 5.2,72.4" fill="#38A169" stroke="#222" stroke-width="0.5" opacity="0.85"/>
<text x="38.0" y="67.8" text-anchor="middle" font-size="6" fill="#fff" stroke="#000" stroke-width="0.2">3</text>
<polygon points="130.6,115.1 193.9,115.1 195.0,114.0 195.0,99.2 129.5,99.2 129.5,114.0" fill="#4FD1C5" stroke="#222" stroke-width="0.5" opacity="0.85"/>
<text x="162.25" y="109.43333333333334" text-anchor="middle" font-size="6" fill="#fff" stroke="#000" stroke-width="0.2">4</text>
<polygon points="64.3,112.5 64.1,112.3 63.9,112.2 63.9,112.1 63.9,112.0 63.9,111.9 63.8,111.8 63.7,111.8 63.5,111.8 63.5,111.9 63.4,112.1 63.4,112.2 63.4,112.2 63.1,112.5 63.0,112.5 63.1,112.6 63.1,112.7 63.0,113.4 62.9,113.5 63.0,113.6 63.0,113.6 62.9,114.7 62.8,115.8 62.9,115.7 63.1,115.7 63.6,115.7 64.1,115.7 64.4,115.7 64.6,115.8 64.6,115.7 64.4,113.9 64.3,113.7 64.4,113.6 64.4,113.5 64.3,113.4 64.3,113.1 64.2,112.8 64.2,112.7 64.3,112.6" fill="#3182CE" stroke="#222" stroke-width="0.5" opacity="0.85"/>
<text x="63.710256410256406" y="113.35897435897436" text-anchor="middle" font-size="6" fill="#fff" stroke="#000" stroke-width="0.2">5</text>
<polygon points="87.3,134.6 87.0,134.4 86.8,134.3 86.9,134.2 86.9,134.1 86.8,134.0 86.7,133.9 86.6,133.9 86.5,133.9 86.4,134.0 86.4,134.1 86.4,134.3 86.4,134.3 86.0,134.5 86.0,134.6 86.0,134.7 86.0,134.8 86.0,135.5 85.9,135.6 85.9,135.7 86.0,135.7 85.8,136.8 85.7,137.9 85.8,137.8 86.1,137.8 86.5,137.8 87.0,137.8 87.4,137.8 87.5,137.9 87.5,137.8 87.3,136.0 87.3,135.8 87.3,135.7 87.4,135.6 87.3,135.5 87.2,135.2 87.2,134.9 87.2,134.8 87.3,134.6" fill="#805AD5" stroke="#222" stroke-width="0.5" opacity="0.85"/>
<text x="86.65897435897435" y="135.45128205128205" text-anchor="middle" font-size="6" fill="#fff" stroke="#000" stroke-width="0.2">6</text>
<polygon points="87.8,88.6 87.6,88.5 87.4,88.3 87.4,88.3 87.4,88.1 87.4,88.0 87.3,88.0 87.2,87.9 87.0,88.0 87.0,88.1 86.9,88.2 86.9,88.3 86.9,88.4 86.6,88.6 86.5,88.7 86.6,88.7 86.6,88.8 86.5,89.5 86.4,89.7 86.5,89.7 86.5,89.8 86.4,90.8 86.3,91.9 86.3,91.9 86.6,91.8 87.1,91.8 87.6,91.8 87.9,91.9 88.1,91.9 88.1,91.8 87.9,90.0 87.8,89.8 87.9,89.7 87.9,89.7 87.8,89.5 87.8,89.3 87.7,88.9 87.7,88.8 87.8,88.7" fill="#ED64A6" stroke="#222" stroke-width="0.5" opacity="0.85"/>
<text x="87.20769230769231" y="89.49230769230769" text-anchor="middle" font-size="6" fill="#fff" stroke="#000" stroke-width="0.2">7</text>
<polygon points="64.6,65.5 64.3,65.4 64.1,65.3 64.1,65.2 64.2,65.1 64.1,65.0 64.0,64.9 63.9,64.9 63.8,64.9 63.7,65.0 63.7,65.1 63.7,65.2 63.7,65.3 63.3,65.5 63.3,65.6 63.3,65.7 63.3,65.7 63.3,66.4 63.2,66.6 63.2,66.7 63.3,66.7 63.1,67.8 63.0,68.8 63.1,68.8 63.4,68.7 63.8,68.7 64.3,68.7 64.7,68.8 64.8,68.8 64.8,68.8 64.6,66.9 64.6,66.7 64.6,66.7 64.6,66.6 64.6,66.4 64.5,66.2 64.5,65.8 64.5,65.7 64.6,65.6" fill="#FC8181" stroke="#222" stroke-width="0.5" opacity="0.85"/>
<text x="63.95384615384615" y="66.41538461538461" text-anchor="middle" font-size="6" fill="#fff" stroke="#000" stroke-width="0.2">8</text>
<polygon points="163.5,105.2 163.5,107.0 164.0,107.0 164.0,106.3 164.4,107.0 164.6,107.0 164.9,106.3 164.9,107.0 165.4,107.0 165.4,105.2 164.9,105.2 164.5,106.2 164.0,105.2" fill="#D69E2E" stroke="#222" stroke-width="0.5" opacity="0.85"/>
<text x="164.46153846153845" y="106.27692307692307" text-anchor="middle" font-size="6" fill="#fff" stroke="#000" stroke-width="0.2">9</text>
</svg>