<svg xmlns="http://www.w3.org/2000/svg" viewBox="0 0 200 200" width="500" height="500">
<rect width="200" height="200" fill="#f0f0f0"/>
<polygon points="24.3,125.4 16.3,117.4 5.0,117.4 5.0,118.3 5.1,119.2 5.2,120.0 5.3,120.9 5.5,121.8 5.7,122.7 6.0,123.5 6.3,124.3 6.6,125.2 7.0,126.0 7.4,126.8 7.9,127.5 8.4,128.3 8.9,129.0 9.4,129.7 10.0,130.4 10.6,131.0 11.3,131.6 12.0,132.2 12.7,132.7 13.4,133.3 14.1,133.8 14.9,134.2 15.7,134.6 16.5,135.0 17.3,135.3 18.1,135.6 19.0,135.9 19.8,136.1 20.7,136.3 21.6,136.5 22.5,136.6 23.4,136.6 24.3,136.6" fill="#E53E3E" stroke="#222" stroke-width="0.5" opacity="0.85"/>
<text x="12.518918918918919" y="129.12702702702703" text-anchor="middle" font-size="6" fill="#fff" stroke="#000" stroke-width="0.2">0</text>
<polygon points="45.1,117.4 37.1,125.4 37.1,136.6 38.0,136.6 38.9,136.6 39.7,136.5 40.6,136.3 41.5,136.1 42.4,135.9 43.2,135.6 44.0,135.3 44.9,135.0 45.7,134.6 46.5,134.2 47.2,133.8 48.0,133.3 48.7,132.7 49.4,132.2 50.1,131.6 50.7,131.0 51.3,130.4 51.9,129.7 52.5,129.0 53.0,128.3 53.5,127.5 53.9,126.8 54.3,126.0 54.7,125.2 55.0,124.3 55.3,123.5 55.6,122.7 55.8,121.8 56.0,120.9 56.2,120.0 56.3,119.2 56.3,118.3 56.3,117.4" fill="#ED8936" stroke="#222" stroke-width="0.5" opacity="0.85"/>
<text x="48.82972972972973" y="129.12702702702703" text-anchor="middle" font-size="6" fill="#fff" stroke="#000" stroke-width="0.2">1</text>
<polygon points="28.5,89.6 9.3,108.8 9.3,107.6 9.4,106.3 9.5,105.1 9.6,103.8 9.8,102.6 10.0,101.3 10.3,100.1 10.6,98.9 10.9,97.7 11.3,96.5 11.7,95.3 12.2,94.1 12.7,92.9 13.2,91.8 13.8,90.7 14.4,89.6 15.1,88.5 15.8,87.4 16.5,86.4 17.2,85.4 18.0,84.4 18.8,83.4 19.7,82.5 20.6,81.6" fill="#ECC94B" stroke="#222" stroke-width="0.5" opacity="0.85"/>
<text x="13.776923076923076" y="94.31923076923077" text-anchor="middle" font-size="6" fill="#fff" stroke="#000" stroke-width="0.2">2</text>
<polygon points="32.8,89.6 40.8,81.6 41.7,82.5 42.5,83.4 43.3,84.4 44.1,85.4 44.9,86.4 45.6,87.4 46.3,88.5 46.9,89.6 47.5,90.7 48.1,91.8 48.6,92.9 49.1,94.1 49.6,95.3 50.0,96.5 50.4,97.7 50.8,98.9 51.1,100.1 51.3,101.3 51.5,102.6 51.7,103.8 51.9,105.1 52.0,106.3 52.0,107.6 52.1,108.8" fill="#38A169" stroke="#222" stroke-width="0.5" opacity="0.85"/>
<text x="47.56153846153846" y="94.31923076923077" text-anchor="middle" font-size="6" fill="#fff" stroke="#000" stroke-width="0.2">3</text>
<polygon points="122.2,81.4 122.2,62.1 141.4,81.4" fill="#4FD1C5" stroke="#222" stroke-width="0.5" opacity="0.85"/>
<text x="128.6" y="74.96666666666667" text-anchor="middle" font-size="6" fill="#fff" stroke="#000" stroke-width="0.2">4</text>
<polygon points="175.7,78.4 175.7,59.1 195.0,78.4" fill="#3182CE" stroke="#222" stroke-width="0.5" opacity="0.85"/>
<text x="182.13333333333333" y="71.96666666666667" text-anchor="middle" font-size="6" fill="#fff" stroke="#000" stroke-width="0.2">5</text>
<polygon points="146.8,79.9 146.8,60.7 166.0,79.9" fill="#805AD5" stroke="#222" stroke-width="0.5" opacity="0.85"/>
<text x="153.20000000000002" y="73.5" text-anchor="middle" font-size="6" fill="#fff" stroke="#000" stroke-width="0.2">6</text>
<polygon points="28.5,113.1 28.5,93.9 9.3,113.1" fill="#ED64A6" stroke="#222" stroke-width="0.5" opacity="0.85"/>
<text x="22.099999999999998" y="106.7" text-anchor="middle" font-size="6" fill="#fff" stroke="#000" stroke-width="0.2">7</text>
<polygon points="132.6,101.6 131.9,101.6 131.3,101.7 130.6,101.8 129.9,101.9 129.3,102.1 128.6,102.3 128.0,102.6 127.4,102.9 126.8,103.2 126.2,103.6 125.7,104.0 125.1,104.4 124.6,104.9 132.6,112.9" fill="#FC8181" stroke="#222" stroke-width="0.5" opacity="0.85"/>
<text x="128.70666666666665" y="103.43333333333334" text-anchor="middle" font-size="6" fill="#fff" stroke="#000" stroke-width="0.2">8</text>
<polygon points="39.9,75.0 40.4,75.5 32.4,83.5 32.4,72.2 33.1,72.2 33.8,72.3 34.5,72.4 35.1,72.5 35.8,72.7 36.4,72.9 37.1,73.2 37.7,73.5 38.3,73.8 38.8,74.2 39.4,74.6" fill="#D69E2E" stroke="#222" stroke-width="0.5" opacity="0.85"/>
<text x="36.34" y="74.03333333333333" text-anchor="middle" font-size="6" fill="#fff" stroke="#000" stroke-width="0.2">9</text>
<polygon points="187.4,99.4 186.7,99.4 186.1,99.5 185.4,99.6 184.7,99.7 184.1,99.9 183.4,100.1 182.8,100.4 182.2,100.7 181.6,101.0 181.0,101.4 180.5,101.8 179.9,102.2 179.4,102.7 187.4,110.7" fill="#68D391" stroke="#222" stroke-width="0.5" opacity="0.85"/>
<text x="183.50666666666666" y="101.23333333333333" text-anchor="middle" font-size="6" fill="#fff" stroke="#000" stroke-width="0.2">10</text>
<polygon points="158.8,99.6 158.1,99.6 157.4,99.7 156.7,99.8 156.1,99.9 155.4,100.1 154.8,100.4 154.1,100.6 153.5,100.9 152.9,101.2 152.4,101.6 151.8,102.0 151.3,102.5 150.8,102.9 158.8,110.9" fill="#0BC5EA" stroke="#222" stroke-width="0.5" opacity="0.85"/>
<text x="154.86" y="101.44666666666667" text-anchor="middle" font-size="6" fill="#fff" stroke="#000" stroke-width="0.2">11</text>
<polygon points="32.8,125.4 32.8,117.4 40.8,117.4" fill="#9B2C2C" stroke="#222" stroke-width="0.5" opacity="0.85"/>
<text x="35.46666666666666" y="120.06666666666668" text-anchor="middle" font-size="6" fill="#fff" stroke="#000" stroke-width="0.2">12</text>
<polygon points="159.7,140.9 159.7,132.9 151.7,132.9" fill="#A0AEC0" stroke="#222" stroke-width="0.5" opacity="0.85"/>
<text x="157.03333333333333" y="135.5666666666667" text-anchor="middle" font-size="6" fill="#fff" stroke="#000" stroke-width="0.2">13</text>
<polygon points="186.6,138.7 186.6,130.7 178.7,130.7" fill="#1A202C" stroke="#222" stroke-width="0.5" opacity="0.85"/>
<text x="183.96666666666667" y="133.36666666666665" text-anchor="middle" font-size="6" fill="#fff" stroke="#000" stroke-width="0.2">14</text>
<polygon points="138.1,140.0 138.1,132.1 130.1,132.1" fill="#F7FAFC" stroke="#222" stroke-width="0.5" opacity="0.85"/>
<text x="135.4333333333333" y="134.73333333333332" text-anchor="middle" font-size="6" fill="#fff" stroke="#000" stroke-width="0.2">15</text>
</svg>