<svg xmlns="http://www.w3.org/2000/svg" viewBox="0 0 200 200" width="500" height="500">
<rect width="200" height="200" fill="#f0f0f0"/>
<polygon points="150.5,74.0 150.9,74.0 151.2,74.0 151.2,77.1 150.9,77.2 150.6,77.4 150.3,77.6 150.0,77.8 149.7,78.0 149.4,78.2 149.2,78.4 148.9,78.7 148.7,78.9 148.4,79.2 148.2,79.5 148.0,79.8 147.8,80.1 147.7,80.4 147.5,80.7 147.4,81.0 147.3,81.4 147.2,81.7 147.1,82.0 147.0,82.4 146.9,82.7 146.9,83.1 146.9,83.4 146.9,83.8 146.9,84.1 146.9,84.5 147.0,84.9 147.1,85.2 147.2,85.5 147.3,85.9 147.4,86.2 147.5,86.5 147.7,86.9 147.8,87.2 148.0,87.5 148.2,87.8 148.4,88.0 148.7,88.3 148.9,88.6 149.2,88.8 149.4,89.1 149.7,89.3 150.0,89.5 150.3,89.7 150.6,89.8 150.9,90.0 151.2,90.1 151.2,91.8 150.9,92.2 150.0,92.2 149.2,92.1 148.4,92.0 147.5,92.0 146.7,91.9 145.9,91.7 145.1,91.6 144.2,91.4 143.4,91.3 142.6,91.1 141.8,90.9 141.0,90.6 140.2,90.4 139.4,90.1 138.6,89.8 137.8,89.5 137.1,89.2 136.3,88.9 135.5,88.6 134.8,88.2 134.0,87.8 133.3,87.4 132.6,87.0 131.9,86.6 131.1,86.2 130.4,85.7 129.7,85.2 129.1,84.8 128.4,84.3 127.7,83.8 127.1,83.2 126.5,82.7 125.8,82.1 125.2,81.6 125.2,81.0 148.6,57.7 148.8,57.9 149.1,58.1 149.4,58.3 149.7,58.5 150.0,58.6 150.3,58.8 150.6,58.9 150.9,59.1 151.2,59.2 151.2,59.9 150.9,59.9 150.5,59.9 150.2,60.0 149.9,60.0 149.5,60.1 149.2,60.2 148.8,60.3 148.5,60.4 148.2,60.6 147.9,60.8 147.6,60.9 147.3,61.1 147.0,61.3 146.7,61.6 146.5,61.8 146.2,62.0 146.0,62.3 145.8,62.6 145.5,62.8 145.3,63.1 145.2,63.4 145.0,63.7 144.8,64.1 144.7,64.4 144.6,64.7 144.5,65.0 144.4,65.4 144.3,65.7 144.3,66.1 144.2,66.4 144.2,66.8 144.2,67.1 144.2,67.5 144.3,67.8 144.3,68.2 144.4,68.5 144.5,68.9 144.6,69.2 144.7,69.5 144.8,69.8 145.0,70.2 145.2,70.5 145.3,70.8 145.5,71.1 145.8,71.3 146.0,71.6 146.2,71.9 146.5,72.1 146.7,72.4 147.0,72.6 147.3,72.8 147.6,73.0 147.9,73.1 148.2,73.3 148.5,73.5 148.8,73.6 149.2,73.7 149.5,73.8 149.9,73.9 150.2,73.9" fill="#E53E3E" stroke="#222" stroke-width="0.5" opacity="0.85"/>
<text x="145.3358490566038" y="76.42012578616352" text-anchor="middle" font-size="6" fill="#fff" stroke="#000" stroke-width="0.2">0</text>
<polygon points="193.4,37.9 193.2,37.1 192.9,36.3 192.6,35.5 192.3,34.7 192.0,33.9 191.7,33.2 191.4,32.4 191.0,31.6 190.6,30.9 190.2,30.2 189.8,29.4 189.4,28.7 189.0,28.0 188.5,27.3 188.0,26.6 187.6,25.9 187.1,25.3 186.6,24.6 186.0,23.9 185.5,23.3 184.9,22.7 184.4,22.1 183.8,22.1 174.2,31.7 174.4,32.0 174.6,32.2 174.8,32.5 175.0,32.8 175.2,33.2 175.3,33.5 175.5,33.8 175.6,34.1 175.7,34.5 175.8,34.8 175.8,35.2 175.9,35.5 175.9,35.9 175.9,36.2 175.9,36.6 175.9,36.9 175.8,37.3 175.8,37.6 175.7,38.0 175.6,38.3 175.5,38.6 175.4,39.0 175.2,39.3 175.1,39.6 174.9,39.9 174.7,40.2 174.5,40.5 174.3,40.8 174.1,41.0 173.8,41.3 173.6,41.5 173.3,41.8 173.0,42.0 172.8,42.2 172.5,42.4 172.1,42.5 171.8,42.7 171.5,42.8 171.2,43.0 170.8,43.1 170.5,43.2 170.2,43.2 169.8,43.3 169.5,43.3 169.1,43.4 168.8,43.4 168.4,43.4 168.1,43.3 167.7,43.3 167.4,43.2 167.0,43.1 166.7,43.0 166.3,42.9 166.0,42.8 165.7,42.6 165.4,42.5 165.1,42.3 164.8,42.1 164.5,41.9 164.2,41.7 162.4,43.5 162.6,43.8 162.8,44.1 163.0,44.3 163.1,44.6 163.3,44.9 163.5,45.2 163.6,45.5 163.7,45.8 163.8,46.1 163.9,46.5 164.0,46.8 164.1,47.1 164.1,47.4 164.1,47.8 164.2,48.1 166.5,48.1 166.7,47.8 166.8,47.5 167.0,47.2 167.2,46.9 167.4,46.6 167.6,46.3 167.8,46.0 168.1,45.8 168.4,45.5 168.6,45.3 168.9,45.1 169.2,44.9 169.5,44.7 169.8,44.5 170.1,44.4 170.5,44.2 170.8,44.1 171.1,44.0 171.5,43.9 171.8,43.9 172.2,43.8 172.5,43.8 172.9,43.8 173.2,43.8 173.6,43.8 173.9,43.8 174.3,43.9 174.6,43.9 175.0,44.0 175.3,44.1 175.6,44.2 176.0,44.4 176.3,44.5 176.6,44.7 176.9,44.9 177.2,45.1 177.5,45.3 177.7,45.5 178.0,45.8 178.2,46.0 178.5,46.3 178.7,46.6 178.9,46.9 179.1,47.2 179.3,47.5 179.4,47.8 179.6,48.1 194.6,48.1 195.0,47.7 195.0,46.9 194.9,46.0 194.8,45.2 194.8,44.4 194.7,43.6 194.5,42.7 194.4,41.9 194.2,41.1 194.1,40.3 193.9,39.5 193.7,38.7" fill="#ED8936" stroke="#222" stroke-width="0.5" opacity="0.85"/>
<text x="175.88024691358024" y="40.69197530864198" text-anchor="middle" font-size="6" fill="#fff" stroke="#000" stroke-width="0.2">1</text>
<polygon points="161.7,55.9 162.0,55.7 162.2,55.4 162.4,55.1 162.6,54.8 162.8,54.5 163.0,54.2 163.2,53.9 163.3,53.6 163.5,53.3 163.6,52.9 163.7,52.6 163.7,52.2 165.8,52.2 165.8,52.6 165.7,52.9 165.7,53.3 165.7,53.6 165.8,54.0 165.8,54.4 165.9,54.7 165.9,55.0 166.0,55.4 166.1,55.7 166.3,56.1 166.4,56.4 166.6,56.7 166.7,57.0 166.9,57.3 167.1,57.6 167.4,57.9 167.6,58.1 167.8,58.4 168.1,58.6 168.4,58.9 168.6,59.1 168.9,59.3 169.2,59.5 169.6,59.6 169.9,59.8 170.2,59.9 170.5,60.0 170.9,60.1 171.2,60.2 171.6,60.3 171.9,60.4 172.3,60.4 172.6,60.4 173.0,60.4 173.3,60.4 173.7,60.4 174.0,60.3 174.4,60.2 174.7,60.1 175.1,60.0 175.4,59.9 175.7,59.8 176.0,59.6 176.3,59.5 176.6,59.3 176.9,59.1 177.2,58.9 177.5,58.6 177.7,58.4 178.0,58.1 178.2,57.9 178.4,57.6 178.6,57.3 178.8,57.0 179.0,56.7 179.2,56.4 179.3,56.1 179.4,55.7 179.6,55.4 179.7,55.0 179.7,54.7 179.8,54.4 179.8,54.0 179.9,53.6 179.9,53.3 179.8,52.9 179.8,52.6 179.8,52.2 194.4,52.2 194.7,52.6 194.7,53.5 194.7,54.3 194.6,55.1 194.5,56.0 194.4,56.8 194.3,57.6 194.1,58.4 194.0,59.3 193.8,60.1 193.6,60.9 193.4,61.7 193.2,62.5 192.9,63.3 192.7,64.1 192.4,64.9 192.1,65.6 191.8,66.4 191.5,67.2 191.1,68.0 190.8,68.7 190.4,69.4 190.0,70.2 189.6,70.9 189.2,71.6 188.7,72.3 188.3,73.0 187.8,73.7 187.3,74.4 186.8,75.1 186.3,75.7 185.8,76.4 185.2,77.0 184.7,77.7 184.1,78.3 183.6,78.3 179.7,74.4 179.8,74.1 179.8,73.7 179.8,73.4 179.8,73.0 179.8,72.7 179.7,72.3 179.7,72.0 179.6,71.7 179.5,71.3 179.4,71.0 179.3,70.7 179.1,70.4 179.0,70.0 178.8,69.7 178.6,69.5 178.4,69.2 178.2,68.9 178.0,68.6 177.7,68.4 177.5,68.1 177.2,67.9 176.9,67.7 176.7,67.5 176.4,67.3 176.1,67.1 175.7,67.0 175.4,66.8 175.1,66.7 174.8,66.6 174.4,66.5 174.1,66.4 173.8,66.4 173.4,66.3 173.1,66.3 172.7,66.3 172.4,66.3 172.0,66.3 171.7,66.4 161.4,56.1" fill="#ECC94B" stroke="#222" stroke-width="0.5" opacity="0.85"/>
<text x="177.1175" y="61.936875" text-anchor="middle" font-size="6" fill="#fff" stroke="#000" stroke-width="0.2">2</text>
<polygon points="161.0,37.7 160.9,37.3 160.8,37.0 160.7,36.7 160.6,36.3 160.6,36.0 160.6,35.6 160.5,35.3 160.5,34.9 160.5,34.6 160.6,34.2 160.6,33.9 160.7,33.5 160.8,33.2 160.9,32.8 161.0,32.5 161.1,32.2 161.3,31.9 161.4,31.5 161.6,31.2 161.8,31.0 162.0,30.7 162.2,30.4 162.5,30.1 162.7,29.9 163.0,29.7 163.3,29.4 163.5,29.2 163.8,29.0 164.1,28.8 164.4,28.7 164.8,28.5 165.1,28.4 165.4,28.3 165.8,28.2 166.1,28.1 166.4,28.0 166.8,28.0 167.1,28.0 167.5,27.9 167.9,27.9 168.2,28.0 168.6,28.0 168.9,28.1 169.2,28.1 169.6,28.2 169.9,28.3 170.2,28.5 170.6,28.6 170.9,28.8 171.2,28.9 171.5,29.1 171.8,29.3 181.5,19.6 181.4,19.1 180.8,18.5 180.2,18.0 179.6,17.4 178.9,16.9 178.3,16.4 177.6,15.9 176.9,15.4 176.2,15.0 175.5,14.5 174.8,14.1 174.1,13.6 173.4,13.2 172.6,12.8 171.9,12.5 171.1,12.1 170.4,11.8 169.6,11.4 168.8,11.1 168.0,10.8 167.3,10.5 166.5,10.3 165.7,10.0 164.9,9.8 164.1,9.6 163.2,9.4 162.4,9.2 161.6,9.1 160.8,8.9 160.0,8.8 159.1,8.7 158.3,8.6 157.5,8.6 156.6,8.5 155.8,8.5 155.4,8.9 155.4,16.9 155.8,16.9 156.1,16.9 156.5,17.0 156.8,17.1 157.1,17.2 157.5,17.3 157.8,17.4 158.1,17.6 158.5,17.7 158.8,17.9 159.1,18.1 159.3,18.3 159.6,18.5 159.9,18.7 160.1,19.0 160.4,19.2 160.6,19.5 160.8,19.8 161.0,20.1 161.2,20.4 161.4,20.7 161.5,21.0 161.7,21.3 161.8,21.7 161.9,22.0 162.0,22.4 162.1,22.7 162.1,23.1 162.1,23.4 162.2,23.8 162.2,24.1 162.1,24.5 162.1,24.8 162.1,25.2 162.0,25.5 161.9,25.9 161.8,26.2 161.7,26.5 161.5,26.9 161.4,27.2 161.2,27.5 161.0,27.8 160.8,28.1 160.6,28.4 160.4,28.6 160.1,28.9 159.9,29.1 159.6,29.4 159.3,29.6 159.1,29.8 158.8,30.0 158.5,30.2 158.1,30.3 157.8,30.5 157.5,30.6 157.1,30.7 156.8,30.8 156.5,30.9 156.1,30.9 155.8,31.0 155.4,31.0 155.4,39.9 155.7,39.9 156.1,39.9 156.4,39.9 156.8,40.0 157.1,40.0 157.4,40.1 157.8,40.2 158.1,40.3 158.4,40.4 158.7,40.5 159.0,40.7 159.3,40.8 159.6,41.0 159.9,41.2 161.9,39.2 161.7,38.9 161.5,38.6 161.3,38.3 161.2,38.0" fill="#38A169" stroke="#222" stroke-width="0.5" opacity="0.85"/>
<text x="163.0581395348837" y="25.454651162790697" text-anchor="middle" font-size="6" fill="#fff" stroke="#000" stroke-width="0.2">3</text>
<polygon points="150.7,40.6 150.3,40.8 150.0,40.9 149.8,41.1 149.5,41.3 149.2,41.4 148.9,41.6 148.7,41.9 148.4,42.1 148.2,42.3 148.0,42.6 145.2,39.8 145.5,39.6 145.7,39.3 146.0,39.1 146.2,38.8 146.4,38.5 146.6,38.2 146.8,37.9 146.9,37.6 147.1,37.3 147.2,37.0 147.4,36.6 147.5,36.3 147.5,36.0 147.6,35.6 147.6,35.3 147.7,34.9 147.7,34.6 147.7,34.2 147.7,33.9 147.6,33.5 147.6,33.2 147.5,32.8 147.4,32.5 147.3,32.1 147.2,31.8 147.0,31.5 146.9,31.2 146.7,30.9 146.5,30.6 146.3,30.3 146.1,30.0 145.9,29.7 145.6,29.5 145.4,29.2 145.1,29.0 144.8,28.8 144.5,28.6 144.2,28.4 143.9,28.2 143.6,28.1 143.3,27.9 143.0,27.8 142.6,27.7 142.3,27.6 141.9,27.5 141.6,27.5 141.2,27.4 140.9,27.4 140.5,27.4 140.2,27.4 139.8,27.4 139.5,27.5 139.1,27.6 138.8,27.6 138.4,27.7 138.1,27.9 137.8,28.0 137.5,28.1 137.2,28.3 136.8,28.5 136.6,28.7 136.3,28.9 136.0,29.1 135.7,29.4 135.5,29.6 135.3,29.9 125.2,19.9 125.3,19.3 125.9,18.7 126.5,18.2 127.1,17.6 127.8,17.1 128.4,16.6 129.1,16.1 129.8,15.6 130.5,15.2 131.2,14.7 131.9,14.3 132.6,13.9 133.3,13.4 134.1,13.1 134.8,12.7 135.6,12.3 136.3,12.0 137.1,11.6 137.9,11.3 138.7,11.0 139.4,10.8 140.2,10.5 141.0,10.3 141.8,10.0 142.6,9.8 143.5,9.6 144.3,9.5 145.1,9.3 145.9,9.2 146.7,9.0 147.6,8.9 148.4,8.8 149.2,8.8 150.1,8.7 150.9,8.7 151.3,9.1 151.3,17.2 150.9,17.3 150.6,17.4 150.3,17.5 149.9,17.6 149.6,17.7 149.3,17.9 149.0,18.1 148.7,18.2 148.4,18.4 148.1,18.7 147.9,18.9 147.6,19.1 147.4,19.4 147.1,19.6 146.9,19.9 146.7,20.2 146.5,20.5 146.4,20.8 146.2,21.1 146.1,21.4 145.9,21.8 145.8,22.1 145.7,22.4 145.6,22.8 145.6,23.1 145.5,23.5 145.5,23.8 145.5,24.2 145.5,24.5 145.5,24.9 145.6,25.2 145.6,25.5 145.7,25.9 145.8,26.2 145.9,26.6 146.1,26.9 146.2,27.2 146.4,27.5 146.5,27.8 146.7,28.1 146.9,28.4 147.1,28.7 147.4,28.9 147.6,29.2 147.9,29.4 148.1,29.7 148.4,29.9 148.7,30.1 149.0,30.3 149.3,30.4 149.6,30.6 149.9,30.7 150.3,30.8 150.6,30.9 150.9,31.0 151.3,31.1 151.3,40.4 151.0,40.5" fill="#4FD1C5" stroke="#222" stroke-width="0.5" opacity="0.85"/>
<text x="144.0609195402299" y="25.80632183908046" text-anchor="middle" font-size="6" fill="#fff" stroke="#000" stroke-width="0.2">4</text>
<polygon points="145.9,45.5 145.8,45.8 145.7,46.1 145.6,46.4 145.6,46.7 145.5,47.0 145.5,47.3 145.4,47.6 145.4,48.0 142.5,48.0 142.3,47.6 142.2,47.3 142.0,47.0 141.8,46.7 141.6,46.4 141.4,46.2 141.2,45.9 140.9,45.6 140.6,45.4 140.4,45.2 140.1,45.0 139.8,44.8 139.5,44.6 139.2,44.4 138.9,44.2 138.5,44.1 138.2,44.0 137.9,43.9 137.5,43.8 137.2,43.7 136.8,43.7 136.5,43.6 136.1,43.6 135.8,43.6 135.4,43.6 135.1,43.7 134.7,43.7 134.4,43.8 134.0,43.9 133.7,44.0 133.4,44.1 133.0,44.2 132.7,44.4 132.4,44.6 132.1,44.8 131.8,45.0 131.5,45.2 131.3,45.4 131.0,45.6 130.8,45.9 130.5,46.2 130.3,46.4 130.1,46.7 129.9,47.0 129.7,47.3 129.6,47.6 129.4,48.0 127.7,48.0 127.6,47.6 127.6,47.3 127.5,46.9 127.4,46.6 127.3,46.3 127.1,45.9 127.0,45.6 126.8,45.3 126.6,45.0 126.4,44.7 126.2,44.4 126.0,44.1 125.8,43.9 125.5,43.6 125.2,43.4 125.0,43.2 124.7,43.0 124.4,42.8 124.1,42.6 123.8,42.4 123.4,42.3 123.1,42.1 122.8,42.0 122.4,41.9 122.1,41.8 121.7,41.8 121.4,41.7 121.0,41.7 120.7,41.7 120.3,41.7 120.0,41.7 119.6,41.8 119.3,41.8 118.9,41.9 118.6,42.0 118.2,42.1 117.9,42.3 117.6,42.4 117.3,42.6 117.0,42.8 116.7,43.0 116.4,43.2 116.1,43.4 115.8,43.6 115.6,43.9 115.3,44.1 115.1,44.4 114.9,44.7 114.7,45.0 114.5,45.3 114.3,45.6 114.2,45.9 114.1,46.3 113.9,46.6 113.8,46.9 113.8,47.3 113.7,47.6 113.6,48.0 112.5,48.0 112.1,47.6 112.1,46.7 112.2,45.9 112.2,45.1 112.3,44.3 112.4,43.4 112.6,42.6 112.7,41.8 112.9,41.0 113.0,40.1 113.2,39.3 113.4,38.5 113.7,37.7 113.9,36.9 114.2,36.1 114.4,35.3 114.7,34.6 115.1,33.8 115.4,33.0 115.7,32.3 116.1,31.5 116.5,30.8 116.8,30.0 117.3,29.3 117.7,28.6 118.1,27.9 118.6,27.2 119.0,26.5 119.5,25.8 120.0,25.1 120.5,24.5 121.1,23.8 121.6,23.2 122.1,22.6 122.7,21.9 123.3,21.9 133.5,32.2 133.3,32.5 133.2,32.8 133.1,33.1 133.0,33.5 132.9,33.8 132.8,34.1 132.8,34.5 132.7,34.8 132.7,35.2 132.7,35.5 132.7,35.9 132.8,36.2 132.8,36.6 132.9,36.9 133.0,37.3 133.1,37.6 133.2,37.9 133.3,38.2 133.5,38.6 133.6,38.9 133.8,39.2 134.0,39.5 134.2,39.7 134.4,40.0 134.7,40.3 134.9,40.5 135.2,40.8 135.4,41.0 135.7,41.2 136.0,41.4 136.3,41.6 136.6,41.7 136.9,41.9 137.3,42.0 137.6,42.1 137.9,42.2 138.3,42.3 138.6,42.4 138.9,42.4 139.3,42.5 139.6,42.5 140.0,42.5 140.3,42.4 140.7,42.4 141.0,42.4 141.4,42.3 141.7,42.2 142.0,42.1 142.4,42.0 142.7,41.8 143.0,41.7 146.2,44.9 146.1,45.2" fill="#3182CE" stroke="#222" stroke-width="0.5" opacity="0.85"/>
<text x="128.5695652173913" y="41.43526570048309" text-anchor="middle" font-size="6" fill="#fff" stroke="#000" stroke-width="0.2">5</text>
<polygon points="142.9,53.0 142.9,52.6 142.9,52.3 142.9,51.9 142.8,51.6 145.4,51.6 145.5,51.9 145.6,52.2 145.7,52.5 145.8,52.8 145.9,53.1 146.1,53.4 146.2,53.6 146.4,53.9 146.6,54.2 123.1,77.6 122.6,77.6 122.0,77.0 121.5,76.4 120.9,75.7 120.4,75.1 119.9,74.4 119.4,73.7 118.9,73.1 118.5,72.4 118.0,71.7 117.6,71.0 117.1,70.2 116.7,69.5 116.3,68.8 116.0,68.0 115.6,67.3 115.3,66.5 114.9,65.8 114.6,65.0 114.3,64.2 114.1,63.4 113.8,62.6 113.5,61.8 113.3,61.0 113.1,60.2 112.9,59.4 112.7,58.6 112.6,57.8 112.4,56.9 112.3,56.1 112.2,55.3 112.1,54.5 112.1,53.6 112.0,52.8 112.0,52.0 112.4,51.6 113.5,51.6 113.6,51.9 113.6,52.3 113.7,52.6 113.8,53.0 113.9,53.3 114.1,53.6 114.2,53.9 114.4,54.3 114.6,54.6 114.8,54.9 115.0,55.1 115.2,55.4 115.5,55.7 115.7,55.9 116.0,56.2 116.3,56.4 116.5,56.6 116.8,56.8 117.1,57.0 117.5,57.1 117.8,57.3 118.1,57.4 118.5,57.5 118.8,57.6 119.1,57.7 119.5,57.8 119.8,57.8 120.2,57.8 120.6,57.8 120.9,57.8 121.3,57.8 121.6,57.8 122.0,57.7 122.3,57.6 122.7,57.5 123.0,57.4 123.3,57.3 123.6,57.1 124.0,57.0 124.3,56.8 124.6,56.6 124.8,56.4 125.1,56.2 125.4,55.9 125.6,55.7 125.9,55.4 126.1,55.1 126.3,54.9 126.5,54.6 126.7,54.3 126.9,53.9 127.0,53.6 127.2,53.3 127.3,53.0 127.4,52.6 127.5,52.3 127.5,51.9 127.6,51.6 128.9,51.6 128.8,51.9 128.8,52.3 128.8,52.6 128.8,53.0 128.8,53.3 128.8,53.7 128.9,54.0 129.0,54.4 129.1,54.7 129.2,55.1 129.3,55.4 129.5,55.7 129.6,56.0 129.8,56.3 130.0,56.6 130.2,56.9 130.4,57.2 130.6,57.5 130.9,57.7 131.1,58.0 131.4,58.2 131.7,58.4 132.0,58.6 132.3,58.8 132.6,59.0 132.9,59.1 133.2,59.3 133.6,59.4 133.9,59.5 134.3,59.6 134.6,59.6 135.0,59.7 135.3,59.7 135.7,59.7 136.0,59.7 136.4,59.7 136.7,59.7 137.1,59.6 137.4,59.6 137.8,59.5 138.1,59.4 138.4,59.3 138.8,59.1 139.1,59.0 139.4,58.8 139.7,58.6 140.0,58.4 140.3,58.2 140.5,58.0 140.8,57.7 141.0,57.5 141.3,57.2 141.5,56.9 141.7,56.6 141.9,56.3 142.1,56.0 142.2,55.7 142.4,55.4 142.5,55.1 142.6,54.7 142.7,54.4 142.8,54.0 142.8,53.7 142.9,53.3" fill="#805AD5" stroke="#222" stroke-width="0.5" opacity="0.85"/>
<text x="127.0909090909091" y="57.89090909090908" text-anchor="middle" font-size="6" fill="#fff" stroke="#000" stroke-width="0.2">6</text>
<polygon points="156.2,60.2 155.9,60.1 155.5,60.0 155.2,59.9 154.9,59.8 154.9,59.2 155.2,59.2 155.6,59.2 155.9,59.2 156.3,59.1 156.6,59.1 156.9,59.0 157.3,58.9 157.6,58.8 157.9,58.7 158.2,58.5 158.6,58.4 168.4,68.2 168.1,68.4 167.8,68.5 167.5,68.7 167.2,68.9 166.9,69.1 166.6,69.3 166.3,69.6 166.1,69.8 165.9,70.1 165.6,70.4 165.4,70.7 165.2,70.9 165.0,71.2 164.9,71.6 164.7,71.9 164.6,72.2 164.5,72.5 164.4,72.9 164.3,73.2 164.2,73.6 164.2,73.9 164.1,74.3 164.1,74.6 164.1,75.0 164.2,75.3 164.2,75.7 164.3,76.0 164.3,76.4 164.4,76.7 164.5,77.0 164.7,77.4 164.8,77.7 164.9,78.0 165.1,78.3 165.3,78.6 165.5,78.9 165.7,79.2 166.0,79.5 166.2,79.7 166.5,80.0 166.7,80.2 167.0,80.4 167.3,80.6 167.6,80.8 167.9,81.0 168.2,81.1 168.5,81.3 168.9,81.4 169.2,81.5 169.5,81.6 169.9,81.7 170.2,81.7 170.6,81.8 170.9,81.8 171.3,81.8 171.6,81.8 172.0,81.7 172.3,81.7 172.7,81.6 173.0,81.5 173.4,81.4 173.7,81.3 174.0,81.2 174.4,81.0 174.7,80.9 175.0,80.7 175.3,80.5 175.5,80.3 175.8,80.1 176.1,79.8 176.3,79.6 176.6,79.3 176.8,79.0 177.0,78.8 177.2,78.5 177.4,78.2 177.5,77.8 177.7,77.5 180.9,80.8 180.9,81.3 180.3,81.9 179.7,82.4 179.0,83.0 178.4,83.5 177.7,84.0 177.0,84.5 176.4,85.0 175.7,85.4 175.0,85.9 174.3,86.3 173.5,86.8 172.8,87.2 172.1,87.6 171.3,87.9 170.6,88.3 169.8,88.6 169.1,89.0 168.3,89.3 167.5,89.6 166.7,89.8 165.9,90.1 165.1,90.3 164.3,90.6 163.5,90.8 162.7,91.0 161.9,91.2 161.1,91.3 160.2,91.5 159.4,91.6 158.6,91.7 157.8,91.8 156.9,91.8 156.1,91.9 155.3,91.9 154.9,91.5 154.9,90.3 155.2,90.4 155.6,90.4 155.9,90.4 156.3,90.4 156.6,90.4 157.0,90.3 157.3,90.3 157.7,90.2 158.0,90.1 158.4,90.0 158.7,89.9 159.0,89.7 159.3,89.6 159.6,89.4 159.9,89.2 160.2,89.0 160.5,88.8 160.8,88.5 161.0,88.3 161.3,88.0 161.5,87.8 161.7,87.5 161.9,87.2 162.1,86.9 162.3,86.6 162.4,86.3 162.6,85.9 162.7,85.6 162.8,85.3 162.9,84.9 162.9,84.6 163.0,84.2 163.0,83.9 163.0,83.5 163.0,83.2 163.0,82.8 163.0,82.5 162.9,82.1 162.9,81.8 162.8,81.4 162.7,81.1 162.6,80.8 162.4,80.4 162.3,80.1 162.1,79.8 161.9,79.5 161.7,79.2 161.5,78.9 161.3,78.6 161.0,78.4 160.8,78.1 160.5,77.9 160.2,77.7 159.9,77.5 159.6,77.3 159.3,77.1 159.0,77.0 158.7,76.8 158.4,76.7 158.0,76.6 157.7,76.5 157.3,76.4 157.0,76.3 156.6,76.3 156.3,76.3 155.9,76.3 155.6,76.3 155.2,76.3 154.9,76.4 154.9,73.6 155.2,73.5 155.5,73.4 155.9,73.3 156.2,73.1 156.5,73.0 156.8,72.8 157.1,72.6 157.4,72.4 157.7,72.2 158.0,72.0 158.2,71.7 158.5,71.5 158.7,71.2 158.9,70.9 159.1,70.7 159.3,70.4 159.5,70.1 159.7,69.7 159.8,69.4 159.9,69.1 160.1,68.8 160.2,68.4 160.2,68.1 160.3,67.7 160.3,67.4 160.4,67.0 160.4,66.7 160.4,66.3 160.3,66.0 160.3,65.6 160.2,65.3 160.2,64.9 160.1,64.6 159.9,64.3 159.8,63.9 159.7,63.6 159.5,63.3 159.3,63.0 159.1,62.7 158.9,62.4 158.7,62.1 158.5,61.9 158.2,61.6 158.0,61.4 157.7,61.1 157.4,60.9 157.1,60.7 156.8,60.6 156.5,60.4" fill="#ED64A6" stroke="#222" stroke-width="0.5" opacity="0.85"/>
<text x="163.50632411067193" y="77.28339920948616" text-anchor="middle" font-size="6" fill="#fff" stroke="#000" stroke-width="0.2">7</text>
<polygon points="66.3,172.5 66.2,172.3 66.2,172.1 66.2,171.9 66.1,171.7 66.1,171.5 66.0,171.3 65.9,171.2 65.9,171.0 65.8,170.8 65.7,170.6 65.6,170.4 65.5,170.3 65.4,170.1 65.3,170.0 65.2,169.8 65.1,169.6 64.9,169.5 64.8,169.4 64.7,169.2 64.5,169.1 64.4,168.9 64.2,168.8 64.1,168.7 63.9,168.6 63.7,168.5 63.6,168.4 63.4,168.3 63.2,168.2 63.1,168.1 62.9,168.1 62.7,168.0 62.5,167.9 62.3,167.9 62.1,167.8 61.9,167.8 61.7,167.7 61.5,167.7 61.4,167.7 61.2,167.7 61.0,167.7 60.8,167.7 60.6,167.7 60.4,167.7 60.2,167.7 60.0,167.8 59.8,167.8 59.6,167.8 59.4,167.9 59.2,168.0 59.0,168.0 58.9,168.1 58.7,168.2 58.5,168.3 58.3,168.3 58.2,168.4 58.0,168.5 57.8,168.7 57.7,168.8 57.5,168.9 57.4,169.0 57.2,169.1 57.1,169.3 56.9,169.4 56.8,169.6 56.7,169.7 56.6,169.9 56.5,170.0 56.4,170.2 56.3,170.4 56.2,170.5 56.1,170.7 56.0,170.9 55.9,171.1 55.8,171.3 55.8,171.4 55.7,171.6 55.7,171.8 55.6,172.0 55.6,172.2 55.6,172.4 55.5,172.6 55.5,172.8 55.5,173.0 55.5,173.2 55.5,173.4 55.5,173.6 55.6,173.8 55.6,173.9 55.6,174.1 55.7,174.3 55.7,174.5 55.8,174.7 55.8,174.9 55.9,175.1 56.0,175.3 56.1,175.4 56.2,175.6 56.3,175.8 56.4,175.9 56.5,176.1 56.6,176.3 56.7,176.4 56.8,176.6 56.9,176.7 57.1,176.9 57.2,177.0 57.4,177.1 57.5,177.3 57.7,177.4 57.8,177.5 58.0,177.6 58.2,177.7 58.3,177.8 58.5,177.9 58.7,178.0 58.9,178.1 59.0,178.1 59.2,178.2 59.4,178.2 59.6,178.3 59.8,178.3 60.0,178.4 60.2,178.4 60.4,178.4 60.6,178.5 60.8,178.5 61.0,178.5 61.2,178.5 61.4,178.4 61.5,178.4 61.7,178.4 61.9,178.4 62.1,178.3 62.3,178.3 62.5,178.2 62.7,178.2 62.9,178.1 63.1,178.0 63.2,177.9 63.4,177.8 63.6,177.8 63.7,177.7 63.9,177.5 64.1,177.4 64.2,177.3 64.4,177.2 64.5,177.1 64.7,176.9 64.8,176.8 64.9,176.7 65.1,176.5 65.2,176.3 65.3,176.2 65.4,176.0 65.5,175.9 65.6,175.7 65.7,175.5 65.8,175.3 65.9,175.2 65.9,175.0 66.0,174.8 66.1,174.6 66.1,174.4 66.2,174.2 66.2,174.0 66.2,173.9 66.3,173.7 66.3,173.5 66.3,173.3 66.3,173.1 66.3,172.9 66.3,172.7" fill="#FC8181" stroke="#222" stroke-width="0.5" opacity="0.85"/>
<text x="60.912716763005776" y="173.07341040462427" text-anchor="middle" font-size="6" fill="#fff" stroke="#000" stroke-width="0.2">8</text>
<polygon points="53.2,160.0 53.2,160.2 53.2,160.4 53.2,160.6 53.2,160.8 53.1,161.0 53.1,161.2 53.1,161.4 53.0,161.5 52.9,161.7 52.9,161.9 52.8,162.1 52.7,162.3 52.6,162.5 52.5,162.6 52.5,162.8 52.3,163.0 52.2,163.1 52.1,163.3 52.0,163.4 51.9,163.6 51.7,163.7 51.6,163.9 51.5,164.0 51.3,164.1 51.2,164.3 51.0,164.4 50.8,164.5 50.7,164.6 50.5,164.7 50.3,164.8 50.2,164.9 50.0,164.9 49.8,165.0 49.6,165.1 49.4,165.2 49.2,165.2 49.1,165.3 48.9,165.3 48.7,165.3 48.5,165.4 48.3,165.4 48.1,165.4 47.9,165.4 47.7,165.4 47.5,165.4 47.3,165.4 47.1,165.3 46.9,165.3 46.7,165.3 46.5,165.2 46.3,165.2 46.2,165.1 46.0,165.1 45.8,165.0 45.6,164.9 45.4,164.8 45.3,164.7 45.1,164.6 44.9,164.5 44.8,164.4 44.6,164.3 44.4,164.2 44.3,164.1 44.2,163.9 44.0,163.8 43.9,163.7 43.7,163.5 43.6,163.4 43.5,163.2 43.4,163.0 43.3,162.9 43.2,162.7 43.1,162.5 43.0,162.4 42.9,162.2 42.8,162.0 42.8,161.8 42.7,161.6 42.7,161.5 42.6,161.3 42.6,161.1 42.5,160.9 42.5,160.7 42.5,160.5 42.5,160.3 42.5,160.1 42.5,159.9 42.5,159.7 42.5,159.5 42.5,159.3 42.5,159.1 42.6,158.9 42.6,158.7 42.7,158.6 42.7,158.4 42.8,158.2 42.8,158.0 42.9,157.8 43.0,157.6 43.1,157.5 43.2,157.3 43.3,157.1 43.4,157.0 43.5,156.8 43.6,156.6 43.7,156.5 43.9,156.4 44.0,156.2 44.2,156.1 44.3,155.9 44.4,155.8 44.6,155.7 44.8,155.6 44.9,155.5 45.1,155.4 45.3,155.3 45.4,155.2 45.6,155.1 45.8,155.0 46.0,155.0 46.2,154.9 46.3,154.8 46.5,154.8 46.7,154.7 46.9,154.7 47.1,154.7 47.3,154.6 47.5,154.6 47.7,154.6 47.9,154.6 48.1,154.6 48.3,154.6 48.5,154.7 48.7,154.7 48.9,154.7 49.1,154.8 49.2,154.8 49.4,154.9 49.6,154.9 49.8,155.0 50.0,155.1 50.2,155.1 50.3,155.2 50.5,155.3 50.7,155.4 50.8,155.5 51.0,155.6 51.2,155.8 51.3,155.9 51.5,156.0 51.6,156.1 51.7,156.3 51.9,156.4 52.0,156.6 52.1,156.7 52.2,156.9 52.3,157.0 52.5,157.2 52.5,157.4 52.6,157.6 52.7,157.7 52.8,157.9 52.9,158.1 52.9,158.3 53.0,158.5 53.1,158.6 53.1,158.8 53.1,159.0 53.2,159.2 53.2,159.4 53.2,159.6 53.2,159.8" fill="#D69E2E" stroke="#222" stroke-width="0.5" opacity="0.85"/>
<text x="47.84161849710983" y="160.00462427745666" text-anchor="middle" font-size="6" fill="#fff" stroke="#000" stroke-width="0.2">9</text>
<polygon points="27.1,146.3 27.0,146.2 27.0,146.0 27.0,145.8 26.9,145.6 26.9,145.4 26.8,145.2 26.7,145.0 26.7,144.8 26.6,144.7 26.5,144.5 26.4,144.3 26.3,144.1 26.2,144.0 26.1,143.8 26.0,143.7 25.9,143.5 25.7,143.4 25.6,143.2 25.5,143.1 25.3,142.9 25.2,142.8 25.0,142.7 24.9,142.6 24.7,142.5 24.5,142.4 24.4,142.3 24.2,142.2 24.0,142.1 23.8,142.0 23.7,141.9 23.5,141.8 23.3,141.8 23.1,141.7 22.9,141.7 22.7,141.6 22.5,141.6 22.3,141.6 22.1,141.6 21.9,141.6 21.8,141.5 21.6,141.5 21.4,141.6 21.2,141.6 21.0,141.6 20.8,141.6 20.6,141.7 20.4,141.7 20.2,141.8 20.0,141.8 19.8,141.9 19.7,142.0 19.5,142.0 19.3,142.1 19.1,142.2 19.0,142.3 18.8,142.4 18.6,142.5 18.5,142.6 18.3,142.7 18.2,142.9 18.0,143.0 17.9,143.1 17.7,143.3 17.6,143.4 17.5,143.6 17.4,143.7 17.3,143.9 17.1,144.1 17.0,144.2 17.0,144.4 16.9,144.6 16.8,144.7 16.7,144.9 16.6,145.1 16.6,145.3 16.5,145.5 16.5,145.7 16.4,145.9 16.4,146.1 16.4,146.3 16.3,146.4 16.3,146.6 16.3,146.8 16.3,147.0 16.3,147.2 16.3,147.4 16.4,147.6 16.4,147.8 16.4,148.0 16.5,148.2 16.5,148.4 16.6,148.6 16.6,148.8 16.7,148.9 16.8,149.1 16.9,149.3 17.0,149.5 17.0,149.6 17.1,149.8 17.3,150.0 17.4,150.1 17.5,150.3 17.6,150.4 17.7,150.6 17.9,150.7 18.0,150.9 18.2,151.0 18.3,151.1 18.5,151.2 18.6,151.4 18.8,151.5 19.0,151.6 19.1,151.7 19.3,151.8 19.5,151.8 19.7,151.9 19.8,152.0 20.0,152.1 20.2,152.1 20.4,152.2 20.6,152.2 20.8,152.2 21.0,152.3 21.2,152.3 21.4,152.3 21.6,152.3 21.8,152.3 21.9,152.3 22.1,152.3 22.3,152.3 22.5,152.3 22.7,152.2 22.9,152.2 23.1,152.1 23.3,152.1 23.5,152.0 23.7,152.0 23.8,151.9 24.0,151.8 24.2,151.7 24.4,151.6 24.5,151.5 24.7,151.4 24.9,151.3 25.0,151.2 25.2,151.1 25.3,150.9 25.5,150.8 25.6,150.7 25.7,150.5 25.9,150.4 26.0,150.2 26.1,150.1 26.2,149.9 26.3,149.7 26.4,149.6 26.5,149.4 26.6,149.2 26.7,149.0 26.7,148.8 26.8,148.7 26.9,148.5 26.9,148.3 27.0,148.1 27.0,147.9 27.0,147.7 27.1,147.5 27.1,147.3 27.1,147.1 27.1,146.9 27.1,146.7 27.1,146.5" fill="#68D391" stroke="#222" stroke-width="0.5" opacity="0.85"/>
<text x="21.706936416184973" y="146.93526011560692" text-anchor="middle" font-size="6" fill="#fff" stroke="#000" stroke-width="0.2">10</text>
<polygon points="40.1,159.4 40.1,159.2 40.1,159.0 40.0,158.8 40.0,158.6 39.9,158.5 39.9,158.3 39.8,158.1 39.7,157.9 39.7,157.7 39.6,157.6 39.5,157.4 39.4,157.2 39.3,157.0 39.2,156.9 39.1,156.7 38.9,156.6 38.8,156.4 38.7,156.3 38.5,156.1 38.4,156.0 38.2,155.9 38.1,155.8 37.9,155.6 37.8,155.5 37.6,155.4 37.4,155.3 37.3,155.2 37.1,155.1 36.9,155.1 36.7,155.0 36.5,154.9 36.4,154.9 36.2,154.8 36.0,154.8 35.8,154.7 35.6,154.7 35.4,154.7 35.2,154.6 35.0,154.6 34.8,154.6 34.6,154.6 34.4,154.6 34.2,154.6 34.0,154.7 33.8,154.7 33.7,154.7 33.5,154.8 33.3,154.8 33.1,154.9 32.9,155.0 32.7,155.0 32.5,155.1 32.4,155.2 32.2,155.3 32.0,155.4 31.9,155.5 31.7,155.6 31.5,155.7 31.4,155.8 31.2,155.9 31.1,156.1 30.9,156.2 30.8,156.4 30.7,156.5 30.6,156.6 30.4,156.8 30.3,157.0 30.2,157.1 30.1,157.3 30.0,157.5 29.9,157.6 29.8,157.8 29.8,158.0 29.7,158.2 29.6,158.4 29.6,158.6 29.5,158.7 29.5,158.9 29.5,159.1 29.4,159.3 29.4,159.5 29.4,159.7 29.4,159.9 29.4,160.1 29.4,160.3 29.4,160.5 29.4,160.7 29.5,160.9 29.5,161.1 29.5,161.3 29.6,161.5 29.6,161.6 29.7,161.8 29.8,162.0 29.8,162.2 29.9,162.4 30.0,162.5 30.1,162.7 30.2,162.9 30.3,163.0 30.4,163.2 30.6,163.4 30.7,163.5 30.8,163.7 30.9,163.8 31.1,163.9 31.2,164.1 31.4,164.2 31.5,164.3 31.7,164.4 31.9,164.5 32.0,164.6 32.2,164.7 32.4,164.8 32.5,164.9 32.7,165.0 32.9,165.1 33.1,165.1 33.3,165.2 33.5,165.2 33.7,165.3 33.8,165.3 34.0,165.3 34.2,165.4 34.4,165.4 34.6,165.4 34.8,165.4 35.0,165.4 35.2,165.4 35.4,165.4 35.6,165.3 35.8,165.3 36.0,165.3 36.2,165.2 36.4,165.2 36.5,165.1 36.7,165.0 36.9,164.9 37.1,164.9 37.3,164.8 37.4,164.7 37.6,164.6 37.8,164.5 37.9,164.4 38.1,164.3 38.2,164.1 38.4,164.0 38.5,163.9 38.7,163.7 38.8,163.6 38.9,163.4 39.1,163.3 39.2,163.1 39.3,163.0 39.4,162.8 39.5,162.6 39.6,162.5 39.7,162.3 39.7,162.1 39.8,161.9 39.9,161.7 39.9,161.5 40.0,161.4 40.0,161.2 40.1,161.0 40.1,160.8 40.1,160.6 40.1,160.4 40.2,160.2 40.2,160.0 40.2,159.8 40.1,159.6" fill="#0BC5EA" stroke="#222" stroke-width="0.5" opacity="0.85"/>
<text x="34.769942196531794" y="160.00462427745666" text-anchor="middle" font-size="6" fill="#fff" stroke="#000" stroke-width="0.2">11</text>
<polygon points="27.1,159.4 27.0,159.2 27.0,159.0 27.0,158.8 26.9,158.6 26.9,158.5 26.8,158.3 26.7,158.1 26.7,157.9 26.6,157.7 26.5,157.6 26.4,157.4 26.3,157.2 26.2,157.0 26.1,156.9 26.0,156.7 25.9,156.6 25.7,156.4 25.6,156.3 25.5,156.1 25.3,156.0 25.2,155.9 25.0,155.8 24.9,155.6 24.7,155.5 24.5,155.4 24.4,155.3 24.2,155.2 24.0,155.1 23.8,155.1 23.7,155.0 23.5,154.9 23.3,154.9 23.1,154.8 22.9,154.8 22.7,154.7 22.5,154.7 22.3,154.7 22.1,154.6 21.9,154.6 21.8,154.6 21.6,154.6 21.4,154.6 21.2,154.6 21.0,154.7 20.8,154.7 20.6,154.7 20.4,154.8 20.2,154.8 20.0,154.9 19.8,155.0 19.7,155.0 19.5,155.1 19.3,155.2 19.1,155.3 19.0,155.4 18.8,155.5 18.6,155.6 18.5,155.7 18.3,155.8 18.2,155.9 18.0,156.1 17.9,156.2 17.7,156.4 17.6,156.5 17.5,156.6 17.4,156.8 17.3,157.0 17.1,157.1 17.0,157.3 17.0,157.5 16.9,157.6 16.8,157.8 16.7,158.0 16.6,158.2 16.6,158.4 16.5,158.6 16.5,158.7 16.4,158.9 16.4,159.1 16.4,159.3 16.3,159.5 16.3,159.7 16.3,159.9 16.3,160.1 16.3,160.3 16.3,160.5 16.4,160.7 16.4,160.9 16.4,161.1 16.5,161.3 16.5,161.5 16.6,161.6 16.6,161.8 16.7,162.0 16.8,162.2 16.9,162.4 17.0,162.5 17.0,162.7 17.1,162.9 17.3,163.0 17.4,163.2 17.5,163.4 17.6,163.5 17.7,163.7 17.9,163.8 18.0,163.9 18.2,164.1 18.3,164.2 18.5,164.3 18.6,164.4 18.8,164.5 19.0,164.6 19.1,164.7 19.3,164.8 19.5,164.9 19.7,165.0 19.8,165.1 20.0,165.1 20.2,165.2 20.4,165.2 20.6,165.3 20.8,165.3 21.0,165.3 21.2,165.4 21.4,165.4 21.6,165.4 21.8,165.4 21.9,165.4 22.1,165.4 22.3,165.4 22.5,165.3 22.7,165.3 22.9,165.3 23.1,165.2 23.3,165.2 23.5,165.1 23.7,165.0 23.8,164.9 24.0,164.9 24.2,164.8 24.4,164.7 24.5,164.6 24.7,164.5 24.9,164.4 25.0,164.3 25.2,164.1 25.3,164.0 25.5,163.9 25.6,163.7 25.7,163.6 25.9,163.4 26.0,163.3 26.1,163.1 26.2,163.0 26.3,162.8 26.4,162.6 26.5,162.5 26.6,162.3 26.7,162.1 26.7,161.9 26.8,161.7 26.9,161.5 26.9,161.4 27.0,161.2 27.0,161.0 27.0,160.8 27.1,160.6 27.1,160.4 27.1,160.2 27.1,160.0 27.1,159.8 27.1,159.6" fill="#9B2C2C" stroke="#222" stroke-width="0.5" opacity="0.85"/>
<text x="21.706936416184973" y="160.00462427745666" text-anchor="middle" font-size="6" fill="#fff" stroke="#000" stroke-width="0.2">12</text>
<polygon points="66.3,160.0 66.3,160.2 66.3,160.4 66.3,160.6 66.2,160.8 66.2,161.0 66.2,161.2 66.1,161.4 66.1,161.5 66.0,161.7 65.9,161.9 65.9,162.1 65.8,162.3 65.7,162.5 65.6,162.6 65.5,162.8 65.4,163.0 65.3,163.1 65.2,163.3 65.1,163.4 64.9,163.6 64.8,163.7 64.7,163.9 64.5,164.0 64.4,164.1 64.2,164.3 64.1,164.4 63.9,164.5 63.7,164.6 63.6,164.7 63.4,164.8 63.2,164.9 63.1,164.9 62.9,165.0 62.7,165.1 62.5,165.2 62.3,165.2 62.1,165.3 61.9,165.3 61.7,165.3 61.5,165.4 61.4,165.4 61.2,165.4 61.0,165.4 60.8,165.4 60.6,165.4 60.4,165.4 60.2,165.3 60.0,165.3 59.8,165.3 59.6,165.2 59.4,165.2 59.2,165.1 59.0,165.1 58.9,165.0 58.7,164.9 58.5,164.8 58.3,164.7 58.2,164.6 58.0,164.5 57.8,164.4 57.7,164.3 57.5,164.2 57.4,164.1 57.2,163.9 57.1,163.8 56.9,163.7 56.8,163.5 56.7,163.4 56.6,163.2 56.5,163.0 56.4,162.9 56.3,162.7 56.2,162.5 56.1,162.4 56.0,162.2 55.9,162.0 55.8,161.8 55.8,161.6 55.7,161.5 55.7,161.3 55.6,161.1 55.6,160.9 55.6,160.7 55.5,160.5 55.5,160.3 55.5,160.1 55.5,159.9 55.5,159.7 55.5,159.5 55.6,159.3 55.6,159.1 55.6,158.9 55.7,158.7 55.7,158.6 55.8,158.4 55.8,158.2 55.9,158.0 56.0,157.8 56.1,157.6 56.2,157.5 56.3,157.3 56.4,157.1 56.5,157.0 56.6,156.8 56.7,156.6 56.8,156.5 56.9,156.4 57.1,156.2 57.2,156.1 57.4,155.9 57.5,155.8 57.7,155.7 57.8,155.6 58.0,155.5 58.2,155.4 58.3,155.3 58.5,155.2 58.7,155.1 58.9,155.0 59.0,155.0 59.2,154.9 59.4,154.8 59.6,154.8 59.8,154.7 60.0,154.7 60.2,154.7 60.4,154.6 60.6,154.6 60.8,154.6 61.0,154.6 61.2,154.6 61.4,154.6 61.5,154.7 61.7,154.7 61.9,154.7 62.1,154.8 62.3,154.8 62.5,154.9 62.7,154.9 62.9,155.0 63.1,155.1 63.2,155.1 63.4,155.2 63.6,155.3 63.7,155.4 63.9,155.5 64.1,155.6 64.2,155.8 64.4,155.9 64.5,156.0 64.7,156.1 64.8,156.3 64.9,156.4 65.1,156.6 65.2,156.7 65.3,156.9 65.4,157.0 65.5,157.2 65.6,157.4 65.7,157.6 65.8,157.7 65.9,157.9 65.9,158.1 66.0,158.3 66.1,158.5 66.1,158.6 66.2,158.8 66.2,159.0 66.2,159.2 66.3,159.4 66.3,159.6 66.3,159.8" fill="#A0AEC0" stroke="#222" stroke-width="0.5" opacity="0.85"/>
<text x="60.912716763005776" y="160.00462427745666" text-anchor="middle" font-size="6" fill="#fff" stroke="#000" stroke-width="0.2">13</text>
<polygon points="53.2,146.9 53.2,147.1 53.2,147.3 53.2,147.5 53.2,147.7 53.1,147.9 53.1,148.1 53.1,148.3 53.0,148.5 52.9,148.7 52.9,148.8 52.8,149.0 52.7,149.2 52.6,149.4 52.5,149.6 52.5,149.7 52.3,149.9 52.2,150.1 52.1,150.2 52.0,150.4 51.9,150.5 51.7,150.7 51.6,150.8 51.5,150.9 51.3,151.1 51.2,151.2 51.0,151.3 50.8,151.4 50.7,151.5 50.5,151.6 50.3,151.7 50.2,151.8 50.0,151.9 49.8,152.0 49.6,152.0 49.4,152.1 49.2,152.1 49.1,152.2 48.9,152.2 48.7,152.3 48.5,152.3 48.3,152.3 48.1,152.3 47.9,152.3 47.7,152.3 47.5,152.3 47.3,152.3 47.1,152.3 46.9,152.2 46.7,152.2 46.5,152.2 46.3,152.1 46.2,152.1 46.0,152.0 45.8,151.9 45.6,151.8 45.4,151.8 45.3,151.7 45.1,151.6 44.9,151.5 44.8,151.4 44.6,151.2 44.4,151.1 44.3,151.0 44.2,150.9 44.0,150.7 43.9,150.6 43.7,150.4 43.6,150.3 43.5,150.1 43.4,150.0 43.3,149.8 43.2,149.6 43.1,149.5 43.0,149.3 42.9,149.1 42.8,148.9 42.8,148.8 42.7,148.6 42.7,148.4 42.6,148.2 42.6,148.0 42.5,147.8 42.5,147.6 42.5,147.4 42.5,147.2 42.5,147.0 42.5,146.8 42.5,146.6 42.5,146.4 42.5,146.3 42.5,146.1 42.6,145.9 42.6,145.7 42.7,145.5 42.7,145.3 42.8,145.1 42.8,144.9 42.9,144.7 43.0,144.6 43.1,144.4 43.2,144.2 43.3,144.1 43.4,143.9 43.5,143.7 43.6,143.6 43.7,143.4 43.9,143.3 44.0,143.1 44.2,143.0 44.3,142.9 44.4,142.7 44.6,142.6 44.8,142.5 44.9,142.4 45.1,142.3 45.3,142.2 45.4,142.1 45.6,142.0 45.8,142.0 46.0,141.9 46.2,141.8 46.3,141.8 46.5,141.7 46.7,141.7 46.9,141.6 47.1,141.6 47.3,141.6 47.5,141.6 47.7,141.5 47.9,141.5 48.1,141.6 48.3,141.6 48.5,141.6 48.7,141.6 48.9,141.6 49.1,141.7 49.2,141.7 49.4,141.8 49.6,141.8 49.8,141.9 50.0,142.0 50.2,142.1 50.3,142.2 50.5,142.3 50.7,142.4 50.8,142.5 51.0,142.6 51.2,142.7 51.3,142.8 51.5,142.9 51.6,143.1 51.7,143.2 51.9,143.4 52.0,143.5 52.1,143.7 52.2,143.8 52.3,144.0 52.5,144.1 52.5,144.3 52.6,144.5 52.7,144.7 52.8,144.8 52.9,145.0 52.9,145.2 53.0,145.4 53.1,145.6 53.1,145.8 53.1,146.0 53.2,146.2 53.2,146.3 53.2,146.5 53.2,146.7" fill="#1A202C" stroke="#222" stroke-width="0.5" opacity="0.85"/>
<text x="47.84161849710983" y="146.93526011560692" text-anchor="middle" font-size="6" fill="#fff" stroke="#000" stroke-width="0.2">14</text>
<polygon points="66.3,146.3 66.2,146.2 66.2,146.0 66.2,145.8 66.1,145.6 66.1,145.4 66.0,145.2 65.9,145.0 65.9,144.8 65.8,144.7 65.7,144.5 65.6,144.3 65.5,144.1 65.4,144.0 65.3,143.8 65.2,143.7 65.1,143.5 64.9,143.4 64.8,143.2 64.7,143.1 64.5,142.9 64.4,142.8 64.2,142.7 64.1,142.6 63.9,142.5 63.7,142.4 63.6,142.3 63.4,142.2 63.2,142.1 63.1,142.0 62.9,141.9 62.7,141.8 62.5,141.8 62.3,141.7 62.1,141.7 61.9,141.6 61.7,141.6 61.5,141.6 61.4,141.6 61.2,141.6 61.0,141.5 60.8,141.5 60.6,141.6 60.4,141.6 60.2,141.6 60.0,141.6 59.8,141.7 59.6,141.7 59.4,141.8 59.2,141.8 59.0,141.9 58.9,142.0 58.7,142.0 58.5,142.1 58.3,142.2 58.2,142.3 58.0,142.4 57.8,142.5 57.7,142.6 57.5,142.7 57.4,142.9 57.2,143.0 57.1,143.1 56.9,143.3 56.8,143.4 56.7,143.6 56.6,143.7 56.5,143.9 56.4,144.1 56.3,144.2 56.2,144.4 56.1,144.6 56.0,144.7 55.9,144.9 55.8,145.1 55.8,145.3 55.7,145.5 55.7,145.7 55.6,145.9 55.6,146.1 55.6,146.3 55.5,146.4 55.5,146.6 55.5,146.8 55.5,147.0 55.5,147.2 55.5,147.4 55.6,147.6 55.6,147.8 55.6,148.0 55.7,148.2 55.7,148.4 55.8,148.6 55.8,148.8 55.9,148.9 56.0,149.1 56.1,149.3 56.2,149.5 56.3,149.6 56.4,149.8 56.5,150.0 56.6,150.1 56.7,150.3 56.8,150.4 56.9,150.6 57.1,150.7 57.2,150.9 57.4,151.0 57.5,151.1 57.7,151.2 57.8,151.4 58.0,151.5 58.2,151.6 58.3,151.7 58.5,151.8 58.7,151.8 58.9,151.9 59.0,152.0 59.2,152.1 59.4,152.1 59.6,152.2 59.8,152.2 60.0,152.2 60.2,152.3 60.4,152.3 60.6,152.3 60.8,152.3 61.0,152.3 61.2,152.3 61.4,152.3 61.5,152.3 61.7,152.3 61.9,152.2 62.1,152.2 62.3,152.1 62.5,152.1 62.7,152.0 62.9,152.0 63.1,151.9 63.2,151.8 63.4,151.7 63.6,151.6 63.7,151.5 63.9,151.4 64.1,151.3 64.2,151.2 64.4,151.1 64.5,150.9 64.7,150.8 64.8,150.7 64.9,150.5 65.1,150.4 65.2,150.2 65.3,150.1 65.4,149.9 65.5,149.7 65.6,149.6 65.7,149.4 65.8,149.2 65.9,149.0 65.9,148.8 66.0,148.7 66.1,148.5 66.1,148.3 66.2,148.1 66.2,147.9 66.2,147.7 66.3,147.5 66.3,147.3 66.3,147.1 66.3,146.9 66.3,146.7 66.3,146.5" fill="#F7FAFC" stroke="#222" stroke-width="0.5" opacity="0.85"/>
<text x="60.912716763005776" y="146.93526011560692" text-anchor="middle" font-size="6" fill="#fff" stroke="#000" stroke-width="0.2">15</text>
<polygon points="27.1,185.6 27.0,185.4 27.0,185.2 27.0,185.0 26.9,184.8 26.9,184.6 26.8,184.4 26.7,184.2 26.7,184.0 26.6,183.9 26.5,183.7 26.4,183.5 26.3,183.3 26.2,183.2 26.1,183.0 26.0,182.9 25.9,182.7 25.7,182.6 25.6,182.4 25.5,182.3 25.3,182.1 25.2,182.0 25.0,181.9 24.9,181.8 24.7,181.7 24.5,181.6 24.4,181.5 24.2,181.4 24.0,181.3 23.8,181.2 23.7,181.1 23.5,181.1 23.3,181.0 23.1,180.9 22.9,180.9 22.7,180.9 22.5,180.8 22.3,180.8 22.1,180.8 21.9,180.8 21.8,180.8 21.6,180.8 21.4,180.8 21.2,180.8 21.0,180.8 20.8,180.8 20.6,180.9 20.4,180.9 20.2,181.0 20.0,181.0 19.8,181.1 19.7,181.2 19.5,181.2 19.3,181.3 19.1,181.4 19.0,181.5 18.8,181.6 18.6,181.7 18.5,181.8 18.3,182.0 18.2,182.1 18.0,182.2 17.9,182.3 17.7,182.5 17.6,182.6 17.5,182.8 17.4,182.9 17.3,183.1 17.1,183.3 17.0,183.4 17.0,183.6 16.9,183.8 16.8,184.0 16.7,184.1 16.6,184.3 16.6,184.5 16.5,184.7 16.5,184.9 16.4,185.1 16.4,185.3 16.4,185.5 16.3,185.7 16.3,185.8 16.3,186.0 16.3,186.2 16.3,186.4 16.3,186.6 16.4,186.8 16.4,187.0 16.4,187.2 16.5,187.4 16.5,187.6 16.6,187.8 16.6,188.0 16.7,188.1 16.8,188.3 16.9,188.5 17.0,188.7 17.0,188.9 17.1,189.0 17.3,189.2 17.4,189.3 17.5,189.5 17.6,189.6 17.7,189.8 17.9,189.9 18.0,190.1 18.2,190.2 18.3,190.3 18.5,190.4 18.6,190.6 18.8,190.7 19.0,190.8 19.1,190.9 19.3,191.0 19.5,191.0 19.7,191.1 19.8,191.2 20.0,191.3 20.2,191.3 20.4,191.4 20.6,191.4 20.8,191.5 21.0,191.5 21.2,191.5 21.4,191.5 21.6,191.5 21.8,191.5 21.9,191.5 22.1,191.5 22.3,191.5 22.5,191.5 22.7,191.4 22.9,191.4 23.1,191.3 23.3,191.3 23.5,191.2 23.7,191.2 23.8,191.1 24.0,191.0 24.2,190.9 24.4,190.8 24.5,190.7 24.7,190.6 24.9,190.5 25.0,190.4 25.2,190.3 25.3,190.1 25.5,190.0 25.6,189.9 25.7,189.7 25.9,189.6 26.0,189.4 26.1,189.3 26.2,189.1 26.3,188.9 26.4,188.8 26.5,188.6 26.6,188.4 26.7,188.2 26.7,188.1 26.8,187.9 26.9,187.7 26.9,187.5 27.0,187.3 27.0,187.1 27.0,186.9 27.1,186.7 27.1,186.5 27.1,186.3 27.1,186.1 27.1,185.9 27.1,185.8" fill="#4A5568" stroke="#222" stroke-width="0.5" opacity="0.85"/>
<text x="21.706936416184973" y="186.1421965317919" text-anchor="middle" font-size="6" fill="#fff" stroke="#000" stroke-width="0.2">16</text>
<polygon points="40.1,146.3 40.1,146.2 40.1,146.0 40.0,145.8 40.0,145.6 39.9,145.4 39.9,145.2 39.8,145.0 39.7,144.8 39.7,144.7 39.6,144.5 39.5,144.3 39.4,144.1 39.3,144.0 39.2,143.8 39.1,143.7 38.9,143.5 38.8,143.4 38.7,143.2 38.5,143.1 38.4,142.9 38.2,142.8 38.1,142.7 37.9,142.6 37.8,142.5 37.6,142.4 37.4,142.3 37.3,142.2 37.1,142.1 36.9,142.0 36.7,141.9 36.5,141.8 36.4,141.8 36.2,141.7 36.0,141.7 35.8,141.6 35.6,141.6 35.4,141.6 35.2,141.6 35.0,141.6 34.8,141.5 34.6,141.5 34.4,141.6 34.2,141.6 34.0,141.6 33.8,141.6 33.7,141.7 33.5,141.7 33.3,141.8 33.1,141.8 32.9,141.9 32.7,142.0 32.5,142.0 32.4,142.1 32.2,142.2 32.0,142.3 31.9,142.4 31.7,142.5 31.5,142.6 31.4,142.7 31.2,142.9 31.1,143.0 30.9,143.1 30.8,143.3 30.7,143.4 30.6,143.6 30.4,143.7 30.3,143.9 30.2,144.1 30.1,144.2 30.0,144.4 29.9,144.6 29.8,144.7 29.8,144.9 29.7,145.1 29.6,145.3 29.6,145.5 29.5,145.7 29.5,145.9 29.5,146.1 29.4,146.3 29.4,146.4 29.4,146.6 29.4,146.8 29.4,147.0 29.4,147.2 29.4,147.4 29.4,147.6 29.5,147.8 29.5,148.0 29.5,148.2 29.6,148.4 29.6,148.6 29.7,148.8 29.8,148.9 29.8,149.1 29.9,149.3 30.0,149.5 30.1,149.6 30.2,149.8 30.3,150.0 30.4,150.1 30.6,150.3 30.7,150.4 30.8,150.6 30.9,150.7 31.1,150.9 31.2,151.0 31.4,151.1 31.5,151.2 31.7,151.4 31.9,151.5 32.0,151.6 32.2,151.7 32.4,151.8 32.5,151.8 32.7,151.9 32.9,152.0 33.1,152.1 33.3,152.1 33.5,152.2 33.7,152.2 33.8,152.2 34.0,152.3 34.2,152.3 34.4,152.3 34.6,152.3 34.8,152.3 35.0,152.3 35.2,152.3 35.4,152.3 35.6,152.3 35.8,152.2 36.0,152.2 36.2,152.1 36.4,152.1 36.5,152.0 36.7,152.0 36.9,151.9 37.1,151.8 37.3,151.7 37.4,151.6 37.6,151.5 37.8,151.4 37.9,151.3 38.1,151.2 38.2,151.1 38.4,150.9 38.5,150.8 38.7,150.7 38.8,150.5 38.9,150.4 39.1,150.2 39.2,150.1 39.3,149.9 39.4,149.7 39.5,149.6 39.6,149.4 39.7,149.2 39.7,149.0 39.8,148.8 39.9,148.7 39.9,148.5 40.0,148.3 40.0,148.1 40.1,147.9 40.1,147.7 40.1,147.5 40.1,147.3 40.2,147.1 40.2,146.9 40.2,146.7 40.1,146.5" fill="#2B6CB0" stroke="#222" stroke-width="0.5" opacity="0.85"/>
<text x="34.769942196531794" y="146.93526011560692" text-anchor="middle" font-size="6" fill="#fff" stroke="#000" stroke-width="0.2">17</text>
<polygon points="66.3,185.6 66.2,185.4 66.2,185.2 66.2,185.0 66.1,184.8 66.1,184.6 66.0,184.4 65.9,184.2 65.9,184.0 65.8,183.9 65.7,183.7 65.6,183.5 65.5,183.3 65.4,183.2 65.3,183.0 65.2,182.9 65.1,182.7 64.9,182.6 64.8,182.4 64.7,182.3 64.5,182.1 64.4,182.0 64.2,181.9 64.1,181.8 63.9,181.7 63.7,181.6 63.6,181.5 63.4,181.4 63.2,181.3 63.1,181.2 62.9,181.1 62.7,181.1 62.5,181.0 62.3,180.9 62.1,180.9 61.9,180.9 61.7,180.8 61.5,180.8 61.4,180.8 61.2,180.8 61.0,180.8 60.8,180.8 60.6,180.8 60.4,180.8 60.2,180.8 60.0,180.8 59.8,180.9 59.6,180.9 59.4,181.0 59.2,181.0 59.0,181.1 58.9,181.2 58.7,181.2 58.5,181.3 58.3,181.4 58.2,181.5 58.0,181.6 57.8,181.7 57.7,181.8 57.5,182.0 57.4,182.1 57.2,182.2 57.1,182.3 56.9,182.5 56.8,182.6 56.7,182.8 56.6,182.9 56.5,183.1 56.4,183.3 56.3,183.4 56.2,183.6 56.1,183.8 56.0,184.0 55.9,184.1 55.8,184.3 55.8,184.5 55.7,184.7 55.7,184.9 55.6,185.1 55.6,185.3 55.6,185.5 55.5,185.7 55.5,185.8 55.5,186.0 55.5,186.2 55.5,186.4 55.5,186.6 55.6,186.8 55.6,187.0 55.6,187.2 55.7,187.4 55.7,187.6 55.8,187.8 55.8,188.0 55.9,188.1 56.0,188.3 56.1,188.5 56.2,188.7 56.3,188.9 56.4,189.0 56.5,189.2 56.6,189.3 56.7,189.5 56.8,189.6 56.9,189.8 57.1,189.9 57.2,190.1 57.4,190.2 57.5,190.3 57.7,190.4 57.8,190.6 58.0,190.7 58.2,190.8 58.3,190.9 58.5,191.0 58.7,191.0 58.9,191.1 59.0,191.2 59.2,191.3 59.4,191.3 59.6,191.4 59.8,191.4 60.0,191.5 60.2,191.5 60.4,191.5 60.6,191.5 60.8,191.5 61.0,191.5 61.2,191.5 61.4,191.5 61.5,191.5 61.7,191.5 61.9,191.4 62.1,191.4 62.3,191.3 62.5,191.3 62.7,191.2 62.9,191.2 63.1,191.1 63.2,191.0 63.4,190.9 63.6,190.8 63.7,190.7 63.9,190.6 64.1,190.5 64.2,190.4 64.4,190.3 64.5,190.1 64.7,190.0 64.8,189.9 64.9,189.7 65.1,189.6 65.2,189.4 65.3,189.3 65.4,189.1 65.5,188.9 65.6,188.8 65.7,188.6 65.8,188.4 65.9,188.2 65.9,188.1 66.0,187.9 66.1,187.7 66.1,187.5 66.2,187.3 66.2,187.1 66.2,186.9 66.3,186.7 66.3,186.5 66.3,186.3 66.3,186.1 66.3,185.9 66.3,185.8" fill="#22543D" stroke="#222" stroke-width="0.5" opacity="0.85"/>
<text x="60.912716763005776" y="186.1421965317919" text-anchor="middle" font-size="6" fill="#fff" stroke="#000" stroke-width="0.2">18</text>
<polygon points="15.7,166.0 15.7,165.8 15.7,165.6 15.6,165.4 15.6,165.2 15.5,165.0 15.5,164.8 15.4,164.6 15.4,164.4 15.3,164.3 15.2,164.1 15.1,163.9 15.0,163.7 14.9,163.6 14.8,163.4 14.7,163.3 14.5,163.1 14.4,163.0 14.3,162.8 14.1,162.7 14.0,162.5 13.9,162.4 13.7,162.3 13.5,162.2 13.4,162.1 13.2,162.0 13.1,161.9 12.9,161.8 12.7,161.7 12.5,161.6 12.3,161.5 12.2,161.5 12.0,161.4 11.8,161.3 11.6,161.3 11.4,161.2 11.2,161.2 11.0,161.2 10.8,161.2 10.6,161.2 10.4,161.2 10.2,161.2 10.0,161.2 9.9,161.2 9.7,161.2 9.5,161.2 9.3,161.3 9.1,161.3 8.9,161.4 8.7,161.4 8.5,161.5 8.3,161.6 8.2,161.6 8.0,161.7 7.8,161.8 7.6,161.9 7.5,162.0 7.3,162.1 7.1,162.2 7.0,162.4 6.8,162.5 6.7,162.6 6.6,162.7 6.4,162.9 6.3,163.0 6.2,163.2 6.1,163.3 5.9,163.5 5.8,163.7 5.7,163.8 5.6,164.0 5.5,164.2 5.5,164.4 5.4,164.5 5.3,164.7 5.3,164.9 5.2,165.1 5.1,165.3 5.1,165.5 5.1,165.7 5.0,165.9 5.0,166.0 5.0,166.2 5.0,166.4 5.0,166.6 5.0,166.8 5.0,167.0 5.0,167.2 5.1,167.4 5.1,167.6 5.1,167.8 5.2,168.0 5.3,168.2 5.3,168.4 5.4,168.5 5.5,168.7 5.5,168.9 5.6,169.1 5.7,169.2 5.8,169.4 5.9,169.6 6.1,169.7 6.2,169.9 6.3,170.0 6.4,170.2 6.6,170.3 6.7,170.5 6.8,170.6 7.0,170.7 7.1,170.8 7.3,171.0 7.5,171.1 7.6,171.2 7.8,171.3 8.0,171.4 8.2,171.4 8.3,171.5 8.5,171.6 8.7,171.7 8.9,171.7 9.1,171.8 9.3,171.8 9.5,171.8 9.7,171.9 9.9,171.9 10.0,171.9 10.2,171.9 10.4,171.9 10.6,171.9 10.8,171.9 11.0,171.9 11.2,171.9 11.4,171.8 11.6,171.8 11.8,171.7 12.0,171.7 12.2,171.6 12.3,171.6 12.5,171.5 12.7,171.4 12.9,171.3 13.1,171.2 13.2,171.1 13.4,171.0 13.5,170.9 13.7,170.8 13.9,170.7 14.0,170.5 14.1,170.4 14.3,170.3 14.4,170.1 14.5,170.0 14.7,169.8 14.8,169.7 14.9,169.5 15.0,169.3 15.1,169.2 15.2,169.0 15.3,168.8 15.4,168.6 15.4,168.5 15.5,168.3 15.5,168.1 15.6,167.9 15.6,167.7 15.7,167.5 15.7,167.3 15.7,167.1 15.8,166.9 15.8,166.7 15.8,166.5 15.8,166.3 15.8,166.1" fill="#B83280" stroke="#222" stroke-width="0.5" opacity="0.85"/>
<text x="10.384971098265895" y="166.5393063583815" text-anchor="middle" font-size="6" fill="#fff" stroke="#000" stroke-width="0.2">19</text>
<polygon points="27.1,172.5 27.0,172.3 27.0,172.1 27.0,171.9 26.9,171.7 26.9,171.5 26.8,171.3 26.7,171.2 26.7,171.0 26.6,170.8 26.5,170.6 26.4,170.4 26.3,170.3 26.2,170.1 26.1,170.0 26.0,169.8 25.9,169.6 25.7,169.5 25.6,169.4 25.5,169.2 25.3,169.1 25.2,168.9 25.0,168.8 24.9,168.7 24.7,168.6 24.5,168.5 24.4,168.4 24.2,168.3 24.0,168.2 23.8,168.1 23.7,168.1 23.5,168.0 23.3,167.9 23.1,167.9 22.9,167.8 22.7,167.8 22.5,167.7 22.3,167.7 22.1,167.7 21.9,167.7 21.8,167.7 21.6,167.7 21.4,167.7 21.2,167.7 21.0,167.7 20.8,167.8 20.6,167.8 20.4,167.8 20.2,167.9 20.0,168.0 19.8,168.0 19.7,168.1 19.5,168.2 19.3,168.3 19.1,168.3 19.0,168.4 18.8,168.5 18.6,168.7 18.5,168.8 18.3,168.9 18.2,169.0 18.0,169.1 17.9,169.3 17.7,169.4 17.6,169.6 17.5,169.7 17.4,169.9 17.3,170.0 17.1,170.2 17.0,170.4 17.0,170.5 16.9,170.7 16.8,170.9 16.7,171.1 16.6,171.3 16.6,171.4 16.5,171.6 16.5,171.8 16.4,172.0 16.4,172.2 16.4,172.4 16.3,172.6 16.3,172.8 16.3,173.0 16.3,173.2 16.3,173.4 16.3,173.6 16.4,173.8 16.4,173.9 16.4,174.1 16.5,174.3 16.5,174.5 16.6,174.7 16.6,174.9 16.7,175.1 16.8,175.3 16.9,175.4 17.0,175.6 17.0,175.8 17.1,175.9 17.3,176.1 17.4,176.3 17.5,176.4 17.6,176.6 17.7,176.7 17.9,176.9 18.0,177.0 18.2,177.1 18.3,177.3 18.5,177.4 18.6,177.5 18.8,177.6 19.0,177.7 19.1,177.8 19.3,177.9 19.5,178.0 19.7,178.1 19.8,178.1 20.0,178.2 20.2,178.2 20.4,178.3 20.6,178.3 20.8,178.4 21.0,178.4 21.2,178.4 21.4,178.5 21.6,178.5 21.8,178.5 21.9,178.5 22.1,178.4 22.3,178.4 22.5,178.4 22.7,178.4 22.9,178.3 23.1,178.3 23.3,178.2 23.5,178.2 23.7,178.1 23.8,178.0 24.0,177.9 24.2,177.8 24.4,177.8 24.5,177.7 24.7,177.5 24.9,177.4 25.0,177.3 25.2,177.2 25.3,177.1 25.5,176.9 25.6,176.8 25.7,176.7 25.9,176.5 26.0,176.3 26.1,176.2 26.2,176.0 26.3,175.9 26.4,175.7 26.5,175.5 26.6,175.3 26.7,175.2 26.7,175.0 26.8,174.8 26.9,174.6 26.9,174.4 27.0,174.2 27.0,174.0 27.0,173.9 27.1,173.7 27.1,173.5 27.1,173.3 27.1,173.1 27.1,172.9 27.1,172.7" fill="#D53F8C" stroke="#222" stroke-width="0.5" opacity="0.85"/>
<text x="21.706936416184973" y="173.07341040462427" text-anchor="middle" font-size="6" fill="#fff" stroke="#000" stroke-width="0.2">20</text>
<polygon points="40.1,172.5 40.1,172.3 40.1,172.1 40.0,171.9 40.0,171.7 39.9,171.5 39.9,171.3 39.8,171.2 39.7,171.0 39.7,170.8 39.6,170.6 39.5,170.4 39.4,170.3 39.3,170.1 39.2,170.0 39.1,169.8 38.9,169.6 38.8,169.5 38.7,169.4 38.5,169.2 38.4,169.1 38.2,168.9 38.1,168.8 37.9,168.7 37.8,168.6 37.6,168.5 37.4,168.4 37.3,168.3 37.1,168.2 36.9,168.1 36.7,168.1 36.5,168.0 36.4,167.9 36.2,167.9 36.0,167.8 35.8,167.8 35.6,167.7 35.4,167.7 35.2,167.7 35.0,167.7 34.8,167.7 34.6,167.7 34.4,167.7 34.2,167.7 34.0,167.7 33.8,167.8 33.7,167.8 33.5,167.8 33.3,167.9 33.1,168.0 32.9,168.0 32.7,168.1 32.5,168.2 32.4,168.3 32.2,168.3 32.0,168.4 31.9,168.5 31.7,168.7 31.5,168.8 31.4,168.9 31.2,169.0 31.1,169.1 30.9,169.3 30.8,169.4 30.7,169.6 30.6,169.7 30.4,169.9 30.3,170.0 30.2,170.2 30.1,170.4 30.0,170.5 29.9,170.7 29.8,170.9 29.8,171.1 29.7,171.3 29.6,171.4 29.6,171.6 29.5,171.8 29.5,172.0 29.5,172.2 29.4,172.4 29.4,172.6 29.4,172.8 29.4,173.0 29.4,173.2 29.4,173.4 29.4,173.6 29.4,173.8 29.5,173.9 29.5,174.1 29.5,174.3 29.6,174.5 29.6,174.7 29.7,174.9 29.8,175.1 29.8,175.3 29.9,175.4 30.0,175.6 30.1,175.8 30.2,175.9 30.3,176.1 30.4,176.3 30.6,176.4 30.7,176.6 30.8,176.7 30.9,176.9 31.1,177.0 31.2,177.1 31.4,177.3 31.5,177.4 31.7,177.5 31.9,177.6 32.0,177.7 32.2,177.8 32.4,177.9 32.5,178.0 32.7,178.1 32.9,178.1 33.1,178.2 33.3,178.2 33.5,178.3 33.7,178.3 33.8,178.4 34.0,178.4 34.2,178.4 34.4,178.5 34.6,178.5 34.8,178.5 35.0,178.5 35.2,178.4 35.4,178.4 35.6,178.4 35.8,178.4 36.0,178.3 36.2,178.3 36.4,178.2 36.5,178.2 36.7,178.1 36.9,178.0 37.1,177.9 37.3,177.8 37.4,177.8 37.6,177.7 37.8,177.5 37.9,177.4 38.1,177.3 38.2,177.2 38.4,177.1 38.5,176.9 38.7,176.8 38.8,176.7 38.9,176.5 39.1,176.3 39.2,176.2 39.3,176.0 39.4,175.9 39.5,175.7 39.6,175.5 39.7,175.3 39.7,175.2 39.8,175.0 39.9,174.8 39.9,174.6 40.0,174.4 40.0,174.2 40.1,174.0 40.1,173.9 40.1,173.7 40.1,173.5 40.2,173.3 40.2,173.1 40.2,172.9 40.1,172.7" fill="#718096" stroke="#222" stroke-width="0.5" opacity="0.85"/>
<text x="34.769942196531794" y="173.07341040462427" text-anchor="middle" font-size="6" fill="#fff" stroke="#000" stroke-width="0.2">21</text>
<polygon points="53.2,172.5 53.2,172.3 53.1,172.1 53.1,171.9 53.1,171.7 53.0,171.5 52.9,171.3 52.9,171.2 52.8,171.0 52.7,170.8 52.6,170.6 52.5,170.4 52.5,170.3 52.3,170.1 52.2,170.0 52.1,169.8 52.0,169.6 51.9,169.5 51.7,169.4 51.6,169.2 51.5,169.1 51.3,168.9 51.2,168.8 51.0,168.7 50.8,168.6 50.7,168.5 50.5,168.4 50.3,168.3 50.2,168.2 50.0,168.1 49.8,168.1 49.6,168.0 49.4,167.9 49.2,167.9 49.1,167.8 48.9,167.8 48.7,167.7 48.5,167.7 48.3,167.7 48.1,167.7 47.9,167.7 47.7,167.7 47.5,167.7 47.3,167.7 47.1,167.7 46.9,167.8 46.7,167.8 46.5,167.8 46.3,167.9 46.2,168.0 46.0,168.0 45.8,168.1 45.6,168.2 45.4,168.3 45.3,168.3 45.1,168.4 44.9,168.5 44.8,168.7 44.6,168.8 44.4,168.9 44.3,169.0 44.2,169.1 44.0,169.3 43.9,169.4 43.7,169.6 43.6,169.7 43.5,169.9 43.4,170.0 43.3,170.2 43.2,170.4 43.1,170.5 43.0,170.7 42.9,170.9 42.8,171.1 42.8,171.3 42.7,171.4 42.7,171.6 42.6,171.8 42.6,172.0 42.5,172.2 42.5,172.4 42.5,172.6 42.5,172.8 42.5,173.0 42.5,173.2 42.5,173.4 42.5,173.6 42.5,173.8 42.5,173.9 42.6,174.1 42.6,174.3 42.7,174.5 42.7,174.7 42.8,174.9 42.8,175.1 42.9,175.3 43.0,175.4 43.1,175.6 43.2,175.8 43.3,175.9 43.4,176.1 43.5,176.3 43.6,176.4 43.7,176.6 43.9,176.7 44.0,176.9 44.2,177.0 44.3,177.1 44.4,177.3 44.6,177.4 44.8,177.5 44.9,177.6 45.1,177.7 45.3,177.8 45.4,177.9 45.6,178.0 45.8,178.1 46.0,178.1 46.2,178.2 46.3,178.2 46.5,178.3 46.7,178.3 46.9,178.4 47.1,178.4 47.3,178.4 47.5,178.5 47.7,178.5 47.9,178.5 48.1,178.5 48.3,178.4 48.5,178.4 48.7,178.4 48.9,178.4 49.1,178.3 49.2,178.3 49.4,178.2 49.6,178.2 49.8,178.1 50.0,178.0 50.2,177.9 50.3,177.8 50.5,177.8 50.7,177.7 50.8,177.5 51.0,177.4 51.2,177.3 51.3,177.2 51.5,177.1 51.6,176.9 51.7,176.8 51.9,176.7 52.0,176.5 52.1,176.3 52.2,176.2 52.3,176.0 52.5,175.9 52.5,175.7 52.6,175.5 52.7,175.3 52.8,175.2 52.9,175.0 52.9,174.8 53.0,174.6 53.1,174.4 53.1,174.2 53.1,174.0 53.2,173.9 53.2,173.7 53.2,173.5 53.2,173.3 53.2,173.1 53.2,172.9 53.2,172.7" fill="#E2E8F0" stroke="#222" stroke-width="0.5" opacity="0.85"/>
<text x="47.84161849710983" y="173.07341040462427" text-anchor="middle" font-size="6" fill="#fff" stroke="#000" stroke-width="0.2">22</text>
<polygon points="53.2,186.1 53.2,186.3 53.2,186.5 53.2,186.7 53.2,186.9 53.1,187.1 53.1,187.3 53.1,187.5 53.0,187.7 52.9,187.9 52.9,188.1 52.8,188.2 52.7,188.4 52.6,188.6 52.5,188.8 52.5,188.9 52.3,189.1 52.2,189.3 52.1,189.4 52.0,189.6 51.9,189.7 51.7,189.9 51.6,190.0 51.5,190.1 51.3,190.3 51.2,190.4 51.0,190.5 50.8,190.6 50.7,190.7 50.5,190.8 50.3,190.9 50.2,191.0 50.0,191.1 49.8,191.2 49.6,191.2 49.4,191.3 49.2,191.3 49.1,191.4 48.9,191.4 48.7,191.5 48.5,191.5 48.3,191.5 48.1,191.5 47.9,191.5 47.7,191.5 47.5,191.5 47.3,191.5 47.1,191.5 46.9,191.5 46.7,191.4 46.5,191.4 46.3,191.3 46.2,191.3 46.0,191.2 45.8,191.1 45.6,191.0 45.4,191.0 45.3,190.9 45.1,190.8 44.9,190.7 44.8,190.6 44.6,190.4 44.4,190.3 44.3,190.2 44.2,190.1 44.0,189.9 43.9,189.8 43.7,189.6 43.6,189.5 43.5,189.3 43.4,189.2 43.3,189.0 43.2,188.9 43.1,188.7 43.0,188.5 42.9,188.3 42.8,188.1 42.8,188.0 42.7,187.8 42.7,187.6 42.6,187.4 42.6,187.2 42.5,187.0 42.5,186.8 42.5,186.6 42.5,186.4 42.5,186.2 42.5,186.0 42.5,185.8 42.5,185.7 42.5,185.5 42.5,185.3 42.6,185.1 42.6,184.9 42.7,184.7 42.7,184.5 42.8,184.3 42.8,184.1 42.9,184.0 43.0,183.8 43.1,183.6 43.2,183.4 43.3,183.3 43.4,183.1 43.5,182.9 43.6,182.8 43.7,182.6 43.9,182.5 44.0,182.3 44.2,182.2 44.3,182.1 44.4,182.0 44.6,181.8 44.8,181.7 44.9,181.6 45.1,181.5 45.3,181.4 45.4,181.3 45.6,181.2 45.8,181.2 46.0,181.1 46.2,181.0 46.3,181.0 46.5,180.9 46.7,180.9 46.9,180.8 47.1,180.8 47.3,180.8 47.5,180.8 47.7,180.8 47.9,180.8 48.1,180.8 48.3,180.8 48.5,180.8 48.7,180.8 48.9,180.9 49.1,180.9 49.2,180.9 49.4,181.0 49.6,181.1 49.8,181.1 50.0,181.2 50.2,181.3 50.3,181.4 50.5,181.5 50.7,181.6 50.8,181.7 51.0,181.8 51.2,181.9 51.3,182.0 51.5,182.1 51.6,182.3 51.7,182.4 51.9,182.6 52.0,182.7 52.1,182.9 52.2,183.0 52.3,183.2 52.5,183.3 52.5,183.5 52.6,183.7 52.7,183.9 52.8,184.0 52.9,184.2 52.9,184.4 53.0,184.6 53.1,184.8 53.1,185.0 53.1,185.2 53.2,185.4 53.2,185.6 53.2,185.8 53.2,185.9" fill="#E6FFFA" stroke="#222" stroke-width="0.5" opacity="0.85"/>
<text x="47.84161849710983" y="186.1421965317919" text-anchor="middle" font-size="6" fill="#fff" stroke="#000" stroke-width="0.2">23</text>
<polygon points="40.2,186.1 40.2,186.3 40.1,186.5 40.1,186.7 40.1,186.9 40.1,187.1 40.0,187.3 40.0,187.5 39.9,187.7 39.9,187.9 39.8,188.1 39.7,188.2 39.7,188.4 39.6,188.6 39.5,188.8 39.4,188.9 39.3,189.1 39.2,189.3 39.1,189.4 38.9,189.6 38.8,189.7 38.7,189.9 38.5,190.0 38.4,190.1 38.2,190.3 38.1,190.4 37.9,190.5 37.8,190.6 37.6,190.7 37.4,190.8 37.3,190.9 37.1,191.0 36.9,191.1 36.7,191.2 36.5,191.2 36.4,191.3 36.2,191.3 36.0,191.4 35.8,191.4 35.6,191.5 35.4,191.5 35.2,191.5 35.0,191.5 34.8,191.5 34.6,191.5 34.4,191.5 34.2,191.5 34.0,191.5 33.8,191.5 33.7,191.4 33.5,191.4 33.3,191.3 33.1,191.3 32.9,191.2 32.7,191.1 32.5,191.0 32.4,191.0 32.2,190.9 32.0,190.8 31.9,190.7 31.7,190.6 31.5,190.4 31.4,190.3 31.2,190.2 31.1,190.1 30.9,189.9 30.8,189.8 30.7,189.6 30.6,189.5 30.4,189.3 30.3,189.2 30.2,189.0 30.1,188.9 30.0,188.7 29.9,188.5 29.8,188.3 29.8,188.1 29.7,188.0 29.6,187.8 29.6,187.6 29.5,187.4 29.5,187.2 29.5,187.0 29.4,186.8 29.4,186.6 29.4,186.4 29.4,186.2 29.4,186.0 29.4,185.8 29.4,185.7 29.4,185.5 29.5,185.3 29.5,185.1 29.5,184.9 29.6,184.7 29.6,184.5 29.7,184.3 29.8,184.1 29.8,184.0 29.9,183.8 30.0,183.6 30.1,183.4 30.2,183.3 30.3,183.1 30.4,182.9 30.6,182.8 30.7,182.6 30.8,182.5 30.9,182.3 31.1,182.2 31.2,182.1 31.4,182.0 31.5,181.8 31.7,181.7 31.9,181.6 32.0,181.5 32.2,181.4 32.4,181.3 32.5,181.2 32.7,181.2 32.9,181.1 33.1,181.0 33.3,181.0 33.5,180.9 33.7,180.9 33.8,180.8 34.0,180.8 34.2,180.8 34.4,180.8 34.6,180.8 34.8,180.8 35.0,180.8 35.2,180.8 35.4,180.8 35.6,180.8 35.8,180.9 36.0,180.9 36.2,180.9 36.4,181.0 36.5,181.1 36.7,181.1 36.9,181.2 37.1,181.3 37.3,181.4 37.4,181.5 37.6,181.6 37.8,181.7 37.9,181.8 38.1,181.9 38.2,182.0 38.4,182.1 38.5,182.3 38.7,182.4 38.8,182.6 38.9,182.7 39.1,182.9 39.2,183.0 39.3,183.2 39.4,183.3 39.5,183.5 39.6,183.7 39.7,183.9 39.7,184.0 39.8,184.2 39.9,184.4 39.9,184.6 40.0,184.8 40.0,185.0 40.1,185.2 40.1,185.4 40.1,185.6 40.1,185.8 40.2,185.9" fill="#FFF5F5" stroke="#222" stroke-width="0.5" opacity="0.85"/>
<text x="34.769942196531794" y="186.1421965317919" text-anchor="middle" font-size="6" fill="#fff" stroke="#000" stroke-width="0.2">24</text>
</svg>