<svg xmlns="http://www.w3.org/2000/svg" viewBox="0 0 200 200" width="500" height="500">
<rect width="200" height="200" fill="#f0f0f0"/>
<polygon points="195.0,140.4 157.4,118.7 195.0,97.0" fill="#E53E3E" stroke="#222" stroke-width="0.5" opacity="0.85"/>
<text x="182.46666666666667" y="118.7" text-anchor="middle" font-size="6" fill="#fff" stroke="#000" stroke-width="0.2">0</text>
<polygon points="155.8,103.0 118.2,81.3 155.8,59.6" fill="#ED8936" stroke="#222" stroke-width="0.5" opacity="0.85"/>
<text x="143.26666666666668" y="81.3" text-anchor="middle" font-size="6" fill="#fff" stroke="#000" stroke-width="0.2">1</text>
<polygon points="188.9,117.6 189.0,118.6 188.9,119.5 188.7,120.4 188.5,121.4 188.1,122.2 187.6,123.1 187.0,123.9 186.4,124.5 185.7,125.1 185.0,125.7 184.2,126.1 183.3,126.4 182.5,126.7 181.6,126.8 180.7,126.9 179.8,126.9 178.9,126.7 178.0,126.5 177.1,126.2 176.3,125.7 175.5,125.2 175.1,124.9 174.7,124.4 174.2,124.0 173.9,123.6 173.1,122.3 172.7,121.4 172.4,120.4 172.3,119.8 172.2,119.2 172.2,118.5 172.2,117.7 172.3,117.1 172.4,116.5 172.6,115.8 172.9,115.2 173.2,114.6 173.5,114.0 173.9,113.5 174.3,113.0 174.8,112.5 175.3,112.1 175.7,111.7 176.3,111.3 176.8,111.0 177.9,110.6 178.4,110.4 180.1,110.1 180.6,110.1 180.9,110.1 181.3,110.2 181.8,110.2 182.2,110.3 183.2,110.5 184.1,110.9 184.5,111.1 185.4,111.7 186.4,112.4 186.8,112.9 187.2,113.3 187.5,113.8 187.8,114.3 188.1,114.8 188.5,115.7 188.8,116.7" fill="#ECC94B" stroke="#222" stroke-width="0.5" opacity="0.85"/>
<text x="180.1848484848485" y="117.98030303030303" text-anchor="middle" font-size="6" fill="#fff" stroke="#000" stroke-width="0.2">2</text>
<polygon points="5.0,83.4 16.4,90.0 16.4,63.7 10.7,67.0 10.7,80.1" fill="#38A169" stroke="#222" stroke-width="0.5" opacity="0.85"/>
<text x="11.84" y="76.84" text-anchor="middle" font-size="6" fill="#fff" stroke="#000" stroke-width="0.2">3</text>
<polygon points="24.7,113.6 24.7,100.5 13.4,107.1 7.7,103.8 7.7,110.3 13.4,113.6 19.1,110.3" fill="#4FD1C5" stroke="#222" stroke-width="0.5" opacity="0.85"/>
<text x="15.814285714285715" y="108.45714285714284" text-anchor="middle" font-size="6" fill="#fff" stroke="#000" stroke-width="0.2">4</text>
<polygon points="35.1,78.2 35.1,84.8 29.4,88.1 23.7,84.8 23.7,78.2 29.4,74.9" fill="#3182CE" stroke="#222" stroke-width="0.5" opacity="0.85"/>
<text x="29.400000000000002" y="81.5" text-anchor="middle" font-size="6" fill="#fff" stroke="#000" stroke-width="0.2">5</text>
<polygon points="52.2,78.0 46.5,81.3 46.5,87.8 52.2,91.1 57.9,87.8 57.9,81.3 52.2,84.6" fill="#805AD5" stroke="#222" stroke-width="0.5" opacity="0.85"/>
<text x="52.199999999999996" y="84.55714285714285" text-anchor="middle" font-size="6" fill="#fff" stroke="#000" stroke-width="0.2">6</text>
<polygon points="73.4,81.3 73.4,68.1 67.7,64.9 67.7,78.0" fill="#ED64A6" stroke="#222" stroke-width="0.5" opacity="0.85"/>
<text x="70.55000000000001" y="73.075" text-anchor="middle" font-size="6" fill="#fff" stroke="#000" stroke-width="0.2">7</text>
<polygon points="74.1,103.6 74.1,97.0 79.8,93.7 79.8,106.8" fill="#FC8181" stroke="#222" stroke-width="0.5" opacity="0.85"/>
<text x="76.94999999999999" y="100.275" text-anchor="middle" font-size="6" fill="#fff" stroke="#000" stroke-width="0.2">8</text>
<polygon points="58.6,100.5 58.6,107.1 64.3,110.4 64.3,103.8" fill="#D69E2E" stroke="#222" stroke-width="0.5" opacity="0.85"/>
<text x="61.45" y="105.45" text-anchor="middle" font-size="6" fill="#fff" stroke="#000" stroke-width="0.2">9</text>
<polygon points="41.8,63.7 36.1,67.0 41.8,70.2" fill="#68D391" stroke="#222" stroke-width="0.5" opacity="0.85"/>
<text x="39.9" y="66.96666666666667" text-anchor="middle" font-size="6" fill="#fff" stroke="#000" stroke-width="0.2">10</text>
<polygon points="137.9,82.8 137.8,82.8 137.5,82.4 137.3,82.0 137.2,82.1 136.9,82.1 136.8,82.0 136.6,81.9 136.6,81.7 136.6,81.5 136.7,81.4 136.8,81.3 137.0,81.3 137.3,81.2 137.7,80.6 137.8,80.6 137.8,80.5 137.9,80.6 138.0,80.6 138.1,80.7 138.7,80.6 139.3,80.6 139.4,80.5 139.5,80.4 139.6,80.4 139.7,80.4 139.8,80.5 139.8,80.5 141.7,80.3 143.5,80.1 143.5,80.2 143.4,80.7 143.3,81.5 143.4,82.4 143.4,82.7 143.5,83.0 143.5,83.2 143.4,83.2 140.2,82.9 139.8,82.8 139.7,83.0 139.6,83.0 139.5,83.0 139.5,82.9 139.3,82.8 138.9,82.8 138.2,82.7 138.1,82.7" fill="#0BC5EA" stroke="#222" stroke-width="0.5" opacity="0.85"/>
<text x="139.32291666666666" y="81.66458333333334" text-anchor="middle" font-size="6" fill="#fff" stroke="#000" stroke-width="0.2">11</text>
</svg>