<svg xmlns="http://www.w3.org/2000/svg" viewBox="0 0 200 200" width="500" height="500">
<rect width="200" height="200" fill="#f0f0f0"/>
<polygon points="5.0,61.1 5.0,61.4 5.0,90.1 9.6,94.7 35.7,94.7 40.3,90.1 40.3,64.0 35.7,59.4 7.1,59.4 6.7,59.4 6.4,59.5 6.0,59.7 5.7,59.9 5.5,60.1 5.3,60.4 5.1,60.7" fill="#E53E3E" stroke="#222" stroke-width="0.5" opacity="0.85"/>
<text x="14.025" y="68.4125" text-anchor="middle" font-size="6" fill="#fff" stroke="#000" stroke-width="0.2">0</text>
<polygon points="47.4,122.4 58.3,122.4 58.3,121.7 58.3,121.0 58.2,120.3 58.1,119.6 57.9,119.0 57.8,118.3 57.6,117.6 57.4,116.9 57.1,116.3 56.9,115.7 56.6,115.0 56.2,114.4 55.9,113.8 55.5,113.2 55.1,112.7 54.7,112.1 54.2,111.6 53.7,111.1 53.3,110.6 52.7,110.1 52.2,109.7 51.7,109.2 51.1,108.8 50.5,108.5 49.9,108.1 49.3,107.8 48.7,107.5 48.0,107.2 47.4,107.0 46.7,106.7 46.1,106.6 45.4,106.4 44.7,106.3 44.0,106.2 43.3,106.1 42.6,106.0 41.9,106.0 41.9,116.9 42.3,116.9 42.7,117.0 43.1,117.0 43.5,117.1 43.8,117.3 44.2,117.4 44.6,117.6 44.9,117.8 45.2,118.0 45.5,118.3 45.8,118.5 46.1,118.8 46.3,119.1 46.5,119.4 46.7,119.8 46.9,120.1 47.1,120.5 47.2,120.9 47.3,121.2 47.4,121.6 47.4,122.0" fill="#ED8936" stroke="#222" stroke-width="0.5" opacity="0.85"/>
<text x="49.69016393442623" y="114.64098360655738" text-anchor="middle" font-size="6" fill="#fff" stroke="#000" stroke-width="0.2">1</text>
<polygon points="43.0,141.3 43.7,141.3 44.4,141.2 45.1,141.1 45.8,141.0 46.5,140.8 47.1,140.6 47.8,140.4 48.4,140.1 49.1,139.9 49.7,139.6 50.3,139.2 50.9,138.9 51.5,138.5 52.1,138.1 52.6,137.7 53.2,137.2 53.7,136.8 54.2,136.3 54.6,135.8 55.1,135.2 55.5,134.7 55.9,134.1 56.3,133.5 56.6,132.9 57.0,132.3 57.3,131.7 57.5,131.1 57.8,130.4 58.0,129.7 58.2,129.1 58.4,128.4 58.5,127.7 58.6,127.0 58.7,126.3 58.7,125.6 58.7,124.9 47.8,124.9 47.8,125.3 47.8,125.7 47.7,126.1 47.6,126.5 47.5,126.9 47.3,127.2 47.2,127.6 47.0,127.9 46.7,128.2 46.5,128.5 46.2,128.8 45.9,129.1 45.6,129.3 45.3,129.6 45.0,129.8 44.6,129.9 44.3,130.1 43.9,130.2 43.5,130.3 43.1,130.4 42.7,130.4 42.3,130.5 42.3,141.3" fill="#ECC94B" stroke="#222" stroke-width="0.5" opacity="0.85"/>
<text x="50.1" y="132.7032786885246" text-anchor="middle" font-size="6" fill="#fff" stroke="#000" stroke-width="0.2">2</text>
<polygon points="35.0,127.6 34.8,127.2 34.6,126.9 34.5,126.5 34.4,126.1 34.4,125.7 34.3,125.3 34.3,124.9 23.4,124.9 23.4,125.6 23.5,126.3 23.5,127.0 23.6,127.7 23.8,128.4 23.9,129.1 24.1,129.7 24.4,130.4 24.6,131.1 24.9,131.7 25.2,132.3 25.5,132.9 25.9,133.5 26.2,134.1 26.6,134.7 27.1,135.2 27.5,135.8 28.0,136.3 28.5,136.8 29.0,137.2 29.5,137.7 30.1,138.1 30.6,138.5 31.2,138.9 31.8,139.2 32.4,139.6 33.1,139.9 33.7,140.1 34.3,140.4 35.0,140.6 35.7,140.8 36.3,141.0 37.0,141.1 37.7,141.2 38.4,141.3 39.1,141.3 39.8,141.3 39.8,130.5 39.4,130.4 39.0,130.4 38.6,130.3 38.2,130.2 37.9,130.1 37.5,129.9 37.2,129.8 36.8,129.6 36.5,129.3 36.2,129.1 35.9,128.8 35.6,128.5 35.4,128.2 35.2,127.9" fill="#38A169" stroke="#222" stroke-width="0.5" opacity="0.85"/>
<text x="32.02950819672131" y="132.7032786885246" text-anchor="middle" font-size="6" fill="#fff" stroke="#000" stroke-width="0.2">3</text>
<polygon points="28.2,111.7 27.8,112.1 27.4,112.5 27.0,113.0 26.7,113.4 26.3,113.9 26.0,114.4 25.7,114.9 25.4,115.4 25.1,115.9 24.9,116.4 24.7,117.0 24.4,117.5 24.3,118.1 24.1,118.6 23.9,119.2 23.8,119.8 23.7,120.3 23.6,120.9 23.5,121.5 23.5,122.1 23.4,122.6 23.4,123.2 34.3,123.2 34.3,123.0 34.3,122.7 34.4,122.4 34.4,122.2 34.5,121.9 34.5,121.6 34.6,121.4 34.7,121.1 34.8,120.9 34.9,120.7 35.1,120.4 35.2,120.2 35.4,120.0 35.5,119.8 35.7,119.6 35.9,119.4" fill="#4FD1C5" stroke="#222" stroke-width="0.5" opacity="0.85"/>
<text x="29.232499999999998" y="118.87249999999999" text-anchor="middle" font-size="6" fill="#fff" stroke="#000" stroke-width="0.2">4</text>
<polygon points="36.8,118.5 29.1,110.8 29.5,110.4 29.9,110.0 30.4,109.6 30.8,109.3 31.3,108.9 31.8,108.6 32.3,108.3 32.8,108.0 33.3,107.7 33.8,107.5 34.4,107.3 34.9,107.1 35.5,106.9 36.0,106.7 36.6,106.5 37.1,106.4 37.7,106.3 38.3,106.2 38.9,106.1 39.5,106.1 40.0,106.0 40.6,106.0 40.6,116.9 40.3,116.9 40.1,116.9 39.8,117.0 39.6,117.0 39.3,117.1 39.0,117.1 38.8,117.2 38.5,117.3 38.3,117.4 38.1,117.5 37.8,117.7 37.6,117.8 37.4,118.0 37.2,118.1 37.0,118.3" fill="#3182CE" stroke="#222" stroke-width="0.5" opacity="0.85"/>
<text x="36.2675" y="111.835" text-anchor="middle" font-size="6" fill="#fff" stroke="#000" stroke-width="0.2">5</text>
<polygon points="174.6,69.5 174.6,69.3 174.6,69.1 174.6,68.8 174.6,68.6 174.5,68.4 174.5,68.1 174.4,67.9 174.3,67.7 174.2,67.5 174.1,67.3 174.0,67.1 173.9,66.9 173.8,66.7 173.7,66.5 173.6,66.3 173.4,66.1 173.3,65.9 173.1,65.8 173.0,65.6 172.8,65.5 172.6,65.3 172.4,65.2 172.2,65.0 172.1,64.9 171.9,64.8 171.7,64.7 171.4,64.6 171.2,64.5 171.0,64.4 170.8,64.3 170.6,64.3 170.4,64.2 170.1,64.2 169.9,64.1 169.7,64.1 169.4,64.1 169.2,64.1 169.2,69.5" fill="#805AD5" stroke="#222" stroke-width="0.5" opacity="0.85"/>
<text x="172.54871794871795" y="66.17692307692307" text-anchor="middle" font-size="6" fill="#fff" stroke="#000" stroke-width="0.2">6</text>
<polygon points="195.0,67.0 195.0,66.8 195.0,66.6 195.0,66.3 194.9,66.1 194.9,65.9 194.8,65.7 194.8,65.5 194.7,65.2 194.6,65.0 194.5,64.8 194.4,64.6 194.3,64.4 194.2,64.2 194.1,64.0 193.9,63.8 193.8,63.6 193.6,63.5 193.5,63.3 193.3,63.1 193.1,63.0 193.0,62.8 192.8,62.7 192.6,62.6 192.4,62.4 192.2,62.3 192.0,62.2 191.8,62.1 191.6,62.0 191.4,61.9 191.2,61.9 190.9,61.8 190.7,61.7 190.5,61.7 190.3,61.7 190.0,61.6 189.8,61.6 189.6,61.6 189.6,67.0" fill="#ED64A6" stroke="#222" stroke-width="0.5" opacity="0.85"/>
<text x="192.91794871794872" y="63.69230769230769" text-anchor="middle" font-size="6" fill="#fff" stroke="#000" stroke-width="0.2">7</text>
<polygon points="183.0,89.3 183.0,89.1 183.0,88.8 183.0,88.6 182.9,88.4 182.9,88.1 182.8,87.9 182.8,87.7 182.7,87.5 182.6,87.3 182.5,87.1 182.4,86.9 182.3,86.7 182.2,86.5 182.1,86.3 182.0,86.1 181.8,85.9 181.7,85.7 181.5,85.5 181.3,85.4 181.2,85.2 181.0,85.1 180.8,84.9 180.6,84.8 180.4,84.7 180.2,84.6 180.0,84.5 179.8,84.4 179.6,84.3 179.4,84.2 179.2,84.1 179.0,84.0 178.7,84.0 178.5,83.9 178.3,83.9 178.1,83.9 177.8,83.9 177.6,83.9 177.6,89.3" fill="#FC8181" stroke="#222" stroke-width="0.5" opacity="0.85"/>
<text x="180.93076923076924" y="85.95897435897436" text-anchor="middle" font-size="6" fill="#fff" stroke="#000" stroke-width="0.2">8</text>
<polygon points="35.2,123.2 40.6,123.2 40.6,117.8 40.4,117.8 40.2,117.8 39.9,117.8 39.7,117.9 39.5,117.9 39.3,118.0 39.0,118.0 38.8,118.1 38.6,118.2 38.4,118.3 38.2,118.4 38.0,118.5 37.8,118.6 37.6,118.7 37.4,118.9 37.2,119.0 37.0,119.2 36.9,119.3 36.7,119.5 36.6,119.7 36.4,119.8 36.3,120.0 36.1,120.2 36.0,120.4 35.9,120.6 35.8,120.8 35.7,121.0 35.6,121.2 35.5,121.4 35.4,121.6 35.4,121.9 35.3,122.1 35.3,122.3 35.2,122.5 35.2,122.8 35.2,123.0" fill="#D69E2E" stroke="#222" stroke-width="0.5" opacity="0.85"/>
<text x="37.279487179487184" y="119.88205128205128" text-anchor="middle" font-size="6" fill="#fff" stroke="#000" stroke-width="0.2">9</text>
<polygon points="41.5,129.5 41.7,129.5 42.0,129.5 42.2,129.5 42.4,129.5 42.7,129.4 42.9,129.4 43.1,129.3 43.3,129.2 43.5,129.1 43.7,129.1 44.0,129.0 44.2,128.8 44.4,128.7 44.5,128.6 44.7,128.5 44.9,128.3 45.1,128.2 45.3,128.0 45.4,127.9 45.6,127.7 45.7,127.5 45.9,127.3 46.0,127.2 46.1,127.0 46.2,126.8 46.3,126.6 46.4,126.4 46.5,126.1 46.6,125.9 46.7,125.7 46.8,125.5 46.8,125.3 46.9,125.0 46.9,124.8 46.9,124.6 46.9,124.4 46.9,124.1 41.5,124.1" fill="#68D391" stroke="#222" stroke-width="0.5" opacity="0.85"/>
<text x="44.84871794871795" y="127.46153846153847" text-anchor="middle" font-size="6" fill="#fff" stroke="#000" stroke-width="0.2">10</text>
<polygon points="147.2,80.5 147.2,80.7 147.2,81.0 147.2,81.2 147.2,81.4 147.3,81.6 147.3,81.9 147.4,82.1 147.5,82.3 147.6,82.5 147.6,82.7 147.7,82.9 147.9,83.1 148.0,83.3 148.1,83.5 148.2,83.7 148.4,83.9 148.5,84.1 148.7,84.2 148.8,84.4 149.0,84.6 149.2,84.7 149.4,84.9 149.6,85.0 149.7,85.1 149.9,85.2 150.1,85.3 150.4,85.4 150.6,85.5 150.8,85.6 151.0,85.7 151.2,85.7 151.4,85.8 151.7,85.8 151.9,85.9 152.1,85.9 152.3,85.9 152.6,85.9 152.6,80.5" fill="#0BC5EA" stroke="#222" stroke-width="0.5" opacity="0.85"/>
<text x="149.24358974358975" y="83.83076923076923" text-anchor="middle" font-size="6" fill="#fff" stroke="#000" stroke-width="0.2">11</text>
<polygon points="129.4,77.8 129.4,78.0 129.4,78.2 129.4,78.5 129.5,78.7 129.5,78.9 129.6,79.2 129.6,79.4 129.7,79.6 129.8,79.8 129.9,80.0 130.0,80.2 130.1,80.4 130.2,80.6 130.3,80.8 130.5,81.0 130.6,81.2 130.7,81.4 130.9,81.5 131.1,81.7 131.2,81.8 131.4,82.0 131.6,82.1 131.8,82.3 132.0,82.4 132.2,82.5 132.4,82.6 132.6,82.7 132.8,82.8 133.0,82.9 133.2,83.0 133.4,83.0 133.7,83.1 133.9,83.1 134.1,83.2 134.3,83.2 134.6,83.2 134.8,83.2 134.8,77.8" fill="#9B2C2C" stroke="#222" stroke-width="0.5" opacity="0.85"/>
<text x="131.47179487179486" y="81.12307692307692" text-anchor="middle" font-size="6" fill="#fff" stroke="#000" stroke-width="0.2">12</text>
<polygon points="138.5,58.7 138.5,58.9 138.5,59.1 138.6,59.4 138.6,59.6 138.6,59.8 138.7,60.0 138.8,60.2 138.8,60.5 138.9,60.7 139.0,60.9 139.1,61.1 139.2,61.3 139.3,61.5 139.5,61.7 139.6,61.9 139.7,62.1 139.9,62.2 140.0,62.4 140.2,62.6 140.4,62.7 140.5,62.9 140.7,63.0 140.9,63.1 141.1,63.3 141.3,63.4 141.5,63.5 141.7,63.6 141.9,63.7 142.1,63.8 142.4,63.8 142.6,63.9 142.8,64.0 143.0,64.0 143.2,64.0 143.5,64.1 143.7,64.1 143.9,64.1 143.9,58.7" fill="#A0AEC0" stroke="#222" stroke-width="0.5" opacity="0.85"/>
<text x="140.5923076923077" y="62.00769230769231" text-anchor="middle" font-size="6" fill="#fff" stroke="#000" stroke-width="0.2">13</text>
<polygon points="71.8,94.7 74.4,94.7 74.8,94.7 75.1,94.6 75.4,94.4 75.7,94.2 76.0,94.0 76.2,93.7 76.3,93.3 76.4,93.0 76.5,92.6 76.5,90.1" fill="#1A202C" stroke="#222" stroke-width="0.5" opacity="0.85"/>
<text x="75.425" y="93.66666666666667" text-anchor="middle" font-size="6" fill="#fff" stroke="#000" stroke-width="0.2">14</text>
</svg>