<svg xmlns="http://www.w3.org/2000/svg" viewBox="0 0 200 200" width="500" height="500">
<rect width="200" height="200" fill="#f0f0f0"/>
<polygon points="180.2,81.7 165.4,90.3 165.4,107.4 180.2,115.9 195.0,107.4 195.0,90.3" fill="#E53E3E" stroke="#222" stroke-width="0.5" opacity="0.85"/>
<text x="180.20000000000002" y="98.83333333333333" text-anchor="middle" font-size="6" fill="#fff" stroke="#000" stroke-width="0.2">0</text>
<polygon points="49.1,100.2 50.2,102.2 49.1,104.1 46.9,104.1 45.8,102.2 46.9,100.2" fill="#ED8936" stroke="#222" stroke-width="0.5" opacity="0.85"/>
<text x="48.0" y="102.16666666666667" text-anchor="middle" font-size="6" fill="#fff" stroke="#000" stroke-width="0.2">1</text>
<polygon points="75.0,59.9 73.8,61.8 75.0,63.8 77.2,63.8 78.3,61.8 77.2,59.9" fill="#ECC94B" stroke="#222" stroke-width="0.5" opacity="0.85"/>
<text x="76.08333333333333" y="61.833333333333336" text-anchor="middle" font-size="6" fill="#fff" stroke="#000" stroke-width="0.2">2</text>
<polygon points="68.6,122.9 70.8,122.9 72.0,121.0 70.8,119.0 68.6,119.0 67.5,121.0" fill="#38A169" stroke="#222" stroke-width="0.5" opacity="0.85"/>
<text x="69.71666666666665" y="120.96666666666665" text-anchor="middle" font-size="6" fill="#fff" stroke="#000" stroke-width="0.2">3</text>
<polygon points="47.8,140.7 50.0,140.7 51.1,138.7 50.0,136.8 47.8,136.8 46.7,138.7" fill="#4FD1C5" stroke="#222" stroke-width="0.5" opacity="0.85"/>
<text x="48.9" y="138.73333333333332" text-anchor="middle" font-size="6" fill="#fff" stroke="#000" stroke-width="0.2">4</text>
<polygon points="22.1,61.3 23.2,63.2 25.5,63.2 26.6,61.3 25.5,59.3 23.2,59.3" fill="#3182CE" stroke="#222" stroke-width="0.5" opacity="0.85"/>
<text x="24.349999999999998" y="61.26666666666667" text-anchor="middle" font-size="6" fill="#fff" stroke="#000" stroke-width="0.2">5</text>
<polygon points="5.0,114.0 6.1,112.0 8.3,112.0 9.4,114.0 8.3,115.9 6.1,115.9" fill="#805AD5" stroke="#222" stroke-width="0.5" opacity="0.85"/>
<text x="7.2" y="113.96666666666665" text-anchor="middle" font-size="6" fill="#fff" stroke="#000" stroke-width="0.2">6</text>
</svg>